<svg width="32" height="32" viewBox="0 0 32 32" fill="none" xmlns="http://www.w3.org/2000/svg">
<path d="M23.7467 7.31996V8.30663L19.0268 5.57329C17.2401 4.54663 14.7468 4.54663 12.9734 5.57329L8.25342 8.31996V7.31996C8.25342 4.31996 9.89342 2.66663 12.8934 2.66663H19.1068C22.1068 2.66663 23.7467 4.31996 23.7467 7.31996Z" fill="#DB2777"/>
<path d="M23.7865 10.6266L23.5998 10.5333L21.7865 9.49328L18.0265 7.31995C16.8798 6.65328 15.1198 6.65328 13.9732 7.31995L10.2132 9.47995L8.39984 10.5466L8.15984 10.6666C5.8265 12.2399 5.6665 12.5333 5.6665 15.0533V21.0799C5.6665 23.5999 5.8265 23.8933 8.21317 25.5066L13.9732 28.8266C14.5465 29.1733 15.2665 29.3199 15.9998 29.3199C16.7198 29.3199 17.4532 29.1599 18.0265 28.8266L23.8398 25.4666C26.1865 23.8933 26.3332 23.6133 26.3332 21.0799V15.0533C26.3332 12.5333 26.1732 12.2399 23.7865 10.6266ZM19.7198 17.9999L18.9065 18.9999C18.7732 19.1466 18.6798 19.4266 18.6932 19.6266L18.7732 20.9066C18.8265 21.6933 18.2665 22.0933 17.5332 21.8133L16.3465 21.3333C16.1598 21.2666 15.8532 21.2666 15.6665 21.3333L14.4798 21.7999C13.7465 22.0933 13.1865 21.6799 13.2398 20.8933L13.3198 19.6133C13.3332 19.4133 13.2398 19.1333 13.1065 18.9866L12.2798 17.9999C11.7732 17.3999 11.9998 16.7333 12.7598 16.5333L13.9998 16.2133C14.1998 16.1599 14.4265 15.9733 14.5332 15.8133L15.2265 14.7466C15.6532 14.0799 16.3332 14.0799 16.7732 14.7466L17.4665 15.8133C17.5732 15.9866 17.8132 16.1599 17.9998 16.2133L19.2398 16.5333C19.9998 16.7333 20.2265 17.3999 19.7198 17.9999Z" fill="#DB2777"/>
</svg>
