<svg width="32" height="32" viewBox="0 0 32 32" fill="none" xmlns="http://www.w3.org/2000/svg">
<path d="M21.0666 2.94667C20.5199 2.4 19.5732 2.77333 19.5732 3.53333V8.18667C19.5732 10.1333 21.2266 11.7467 23.2399 11.7467C24.5066 11.76 26.2666 11.76 27.7732 11.76C28.5332 11.76 28.9332 10.8667 28.3999 10.3333C26.4799 8.4 23.0399 4.92 21.0666 2.94667Z" fill="#DB2777"/>
<path d="M27.333 13.5867H23.4797C20.3197 13.5867 17.7463 11.0133 17.7463 7.85332V3.99999C17.7463 3.26666 17.1463 2.66666 16.413 2.66666H10.7597C6.65301 2.66666 3.33301 5.33332 3.33301 10.0933V21.9067C3.33301 26.6667 6.65301 29.3333 10.7597 29.3333H21.2397C25.3463 29.3333 28.6663 26.6667 28.6663 21.9067V14.92C28.6663 14.1867 28.0663 13.5867 27.333 13.5867ZM15.333 23.6667H9.99967C9.45301 23.6667 8.99967 23.2133 8.99967 22.6667C8.99967 22.12 9.45301 21.6667 9.99967 21.6667H15.333C15.8797 21.6667 16.333 22.12 16.333 22.6667C16.333 23.2133 15.8797 23.6667 15.333 23.6667ZM17.9997 18.3333H9.99967C9.45301 18.3333 8.99967 17.88 8.99967 17.3333C8.99967 16.7867 9.45301 16.3333 9.99967 16.3333H17.9997C18.5463 16.3333 18.9997 16.7867 18.9997 17.3333C18.9997 17.88 18.5463 18.3333 17.9997 18.3333Z" fill="#DB2777"/>
</svg>
