<?xml version="1.0" encoding="UTF-8" standalone="no"?>
<svg
   width="24"
   height="24"
   viewBox="0 0 24 24"
   fill="none"
   version="1.1"
   id="svg1"
   sodipodi:docname="inistagram-view.svg"
   inkscape:version="1.4.2 (f4327f4, 2025-05-13)"
   xmlns:inkscape="http://www.inkscape.org/namespaces/inkscape"
   xmlns:sodipodi="http://sodipodi.sourceforge.net/DTD/sodipodi-0.dtd"
   xmlns="http://www.w3.org/2000/svg"
   xmlns:svg="http://www.w3.org/2000/svg">
  <defs
     id="defs1" />
  <sodipodi:namedview
     id="namedview1"
     pagecolor="#ffffff"
     bordercolor="#000000"
     borderopacity="0.25"
     inkscape:showpageshadow="2"
     inkscape:pageopacity="0.0"
     inkscape:pagecheckerboard="0"
     inkscape:deskcolor="#d1d1d1"
     inkscape:zoom="35.625"
     inkscape:cx="12"
     inkscape:cy="12"
     inkscape:window-width="1920"
     inkscape:window-height="1057"
     inkscape:window-x="-8"
     inkscape:window-y="-8"
     inkscape:window-maximized="1"
     inkscape:current-layer="svg1" />
  <path
     d="m 13.0281,2.00073 c 1.1254,0.00186 1.6957,0.00782 2.1885,0.02249 l 0.1941,0.00634 c 0.2242,0.00797 0.4454,0.01797 0.7121,0.03047 1.0641,0.04917 1.79,0.2175 2.4275,0.465 0.6591,0.25417 1.2158,0.5975 1.7716,1.15334 0.555,0.55583 0.8984,1.11416 1.1534,1.77166 0.2466,0.63667 0.415,1.36334 0.465,2.4275 0.0119,0.26667 0.0215,0.48787 0.0294,0.71211 l 0.0063,0.19409 c 0.0146,0.49274 0.0213,1.06313 0.0234,2.18857 l 8e-4,0.7456 c 10e-5,0.0911 10e-5,0.1851 10e-5,0.2821 l -10e-5,0.2821 -6e-4,0.7457 c -0.0019,1.1254 -0.0078,1.6958 -0.0225,2.1885 l -0.0064,0.1941 c -0.0079,0.2243 -0.0179,0.4455 -0.0304,0.7121 -0.0492,1.0642 -0.2184,1.79 -0.465,2.4275 -0.2542,0.6592 -0.5984,1.2159 -1.1534,1.7717 -0.5558,0.555 -1.115,0.8983 -1.7716,1.1533 -0.6375,0.2467 -1.3634,0.415 -2.4275,0.465 -0.2667,0.0119 -0.4879,0.0216 -0.7121,0.0294 l -0.1941,0.0063 c -0.4928,0.0147 -1.0631,0.0213 -2.1885,0.0235 L 12.2824,22 h -0.2821 -0.2821 l -0.7457,-7e-4 C 9.8471,21.9975 9.27672,21.9915 8.78397,21.9768 L 8.58989,21.9705 C 8.36564,21.9625 8.14444,21.9525 7.87778,21.94 6.81361,21.8909 6.08861,21.7217 5.45028,21.475 4.79194,21.2209 4.23444,20.8767 3.67861,20.3217 3.12278,19.7659 2.78028,19.2067 2.52528,18.55 2.27778,17.9125 2.11028,17.1867 2.06028,16.1225 2.0484,15.8559 2.03871,15.6347 2.03086,15.4104 L 2.02457,15.2163 C 2.00994,14.7236 2.00327,14.1532 2.00111,13.0278 L 2.00098,10.9723 C 2.00284,9.84686 2.00879,9.27647 2.02346,8.78373 L 2.02981,8.58964 C 2.03778,8.3654 2.04778,8.1442 2.06028,7.87753 c 0.04916,-1.065 0.2175,-1.79 0.465,-2.4275 C 2.77944,4.7917 3.12278,4.2342 3.67861,3.67837 4.23444,3.12253 4.79278,2.78003 5.45028,2.52503 c 0.6375,-0.2475 1.3625,-0.415 2.4275,-0.465 C 8.14444,2.04816 8.36564,2.03847 8.58989,2.03062 L 8.78397,2.02433 C 9.27672,2.00969 9.8471,2.00302 10.9725,2.00086 Z m -1.0278,4.9993 c -2.76292,0 -5.00002,2.23953 -5.00002,4.99997 0,2.7629 2.23953,5 5.00002,5 2.7629,0 5,-2.2395 5,-5 0,-2.76287 -2.2396,-4.99997 -5,-4.99997 z m 0,2 c 1.6569,0 3,1.34267 3,2.99997 0,1.6569 -1.3427,3 -3,3 -1.6569,0 -3.00002,-1.3426 -3.00002,-3 0,-1.6569 1.34262,-2.99997 3.00002,-2.99997 z m 5.25,-3.5 c -0.6893,0 -1.25,0.55991 -1.25,1.24915 0,0.68925 0.5599,1.25002 1.25,1.25002 0.6892,0 1.25,-0.5599 1.25,-1.25002 0,-0.68924 -0.5617,-1.25001 -1.25,-1.24915 z"
     fill="#ffffff"
     id="path1"
     sodipodi:nodetypes="cccccccccccccccccccccccccccccccccccccccccccccccccccsssssssssscsssc" />
</svg>
