<?xml version="1.0" encoding="UTF-8" standalone="no"?>
<svg
   width="24"
   height="24"
   viewBox="0 0 24 24"
   fill="none"
   version="1.1"
   id="svg3"
   sodipodi:docname="inistagram.svg"
   inkscape:version="1.4.2 (f4327f4, 2025-05-13)"
   xmlns:inkscape="http://www.inkscape.org/namespaces/inkscape"
   xmlns:sodipodi="http://sodipodi.sourceforge.net/DTD/sodipodi-0.dtd"
   xmlns="http://www.w3.org/2000/svg"
   xmlns:svg="http://www.w3.org/2000/svg">
  <defs
     id="defs3" />
  <sodipodi:namedview
     id="namedview3"
     pagecolor="#ffffff"
     bordercolor="#000000"
     borderopacity="0.25"
     inkscape:showpageshadow="2"
     inkscape:pageopacity="0.0"
     inkscape:pagecheckerboard="0"
     inkscape:deskcolor="#d1d1d1"
     inkscape:zoom="35.625"
     inkscape:cx="12.308772"
     inkscape:cy="11.438596"
     inkscape:window-width="1920"
     inkscape:window-height="1057"
     inkscape:window-x="-8"
     inkscape:window-y="-8"
     inkscape:window-maximized="1"
     inkscape:current-layer="svg3" />
  <path
     style="baseline-shift:baseline;display:inline;overflow:visible;opacity:1;vector-effect:none;fill:#ffffff;fill-opacity:0.9;stroke-linejoin:round;enable-background:accumulate;stop-color:#000000;stop-opacity:1"
     d="M 12,1.75 C 9.76083,1.75 8.0659549,1.7443595 6.6875,1.9296875 5.3090451,2.1150155 4.1992117,2.5234506 3.3613281,3.3613281 2.9890233,3.7336356 2.6932398,4.1651588 2.4726563,4.6464844 1.7003867,6.3316195 1.75,8.5166189 1.75,12 c 0,2.23915 -0.00564,3.934038 0.1796875,5.3125 0.1853278,1.378462 0.5937688,2.488264 1.4316406,3.326172 C 4.1992137,21.476527 5.3090474,21.88499 6.6875,22.070312 8.0659526,22.255635 9.76083,22.25 12,22.25 c 2.23915,0 3.93404,0.0056 5.3125,-0.179688 1.37846,-0.185322 2.488262,-0.59379 3.326172,-1.43164 0.83785,-0.83791 1.246318,-1.947712 1.43164,-3.326172 C 22.255635,15.93404 22.25,14.23915 22.25,12 22.25,9.76083 22.255635,8.0659526 22.070312,6.6875 21.88499,5.3090474 21.476527,4.1992137 20.638672,3.3613281 19.800764,2.5234563 18.690962,2.1150153 17.3125,1.9296875 15.934038,1.7443597 14.23915,1.75 12,1.75 Z m 0,1.5 c 2.23915,0 3.902791,0.00549 5.111328,0.1679688 1.208538,0.1624822 1.913405,0.450538 2.466797,1.0039062 0.553344,0.5533644 0.841429,1.258267 1.003906,2.4667969 C 20.744509,8.0972018 20.75,9.76083 20.75,12 c 0,2.23915 -0.0055,3.902788 -0.167969,5.111328 -0.162478,1.20854 -0.450556,1.913407 -1.003906,2.466797 -0.55339,0.55335 -1.258257,0.841428 -2.466797,1.003906 C 15.902788,20.744509 14.23915,20.75 12,20.75 9.76083,20.75 8.0972018,20.744509 6.8886719,20.582031 5.680142,20.419554 4.9752394,20.131469 4.421875,19.578125 3.8685068,19.024733 3.580451,18.319866 3.4179688,17.111328 3.2554865,15.902791 3.25,14.23915 3.25,12 3.25,8.5166189 3.2987725,6.4436084 3.8359375,5.2714844 3.9893681,4.9366903 4.1759924,4.6677594 4.421875,4.421875 4.9752414,3.8685126 5.6801443,3.5804507 6.8886719,3.4179688 8.0971995,3.2554868 9.76083,3.25 12,3.25 Z"
     id="path1"
     sodipodi:nodetypes="sscssscssccssscsssscssccssscssscss" />
  <path
     style="baseline-shift:baseline;display:inline;overflow:visible;vector-effect:none;fill:#ffffff;fill-opacity:0.9;stroke-linejoin:round;enable-background:accumulate;stop-color:#000000;stop-opacity:1;opacity:1"
     d="m 12,6.75 c -2.8906106,0 -5.25,2.3593894 -5.25,5.25 0,2.890627 2.3593934,5.25 5.25,5.25 2.890623,0 5.25,-2.359377 5.25,-5.25 0,-2.8906066 -2.359373,-5.25 -5.25,-5.25 z m 0,1.5 c 2.079973,0 3.75,1.6700466 3.75,3.75 0,2.079977 -1.670023,3.75 -3.75,3.75 C 9.9200466,15.75 8.25,14.079973 8.25,12 8.25,9.9200506 9.9200506,8.25 12,8.25 Z"
     id="path2" />
  <path
     d="M17.5078 6.5H17.4988"
     stroke="white"
     stroke-opacity="0.9"
     stroke-width="1.5"
     stroke-linejoin="round"
     id="path3" />
</svg>
