<?xml version="1.0" encoding="UTF-8" standalone="no"?>
<svg
   width="20"
   height="20"
   viewBox="0 0 20 20"
   fill="none"
   version="1.1"
   id="svg1"
   sodipodi:docname="mail.svg"
   inkscape:version="1.4.2 (f4327f4, 2025-05-13)"
   xmlns:inkscape="http://www.inkscape.org/namespaces/inkscape"
   xmlns:sodipodi="http://sodipodi.sourceforge.net/DTD/sodipodi-0.dtd"
   xmlns="http://www.w3.org/2000/svg"
   xmlns:svg="http://www.w3.org/2000/svg">
  <defs
     id="defs1" />
  <sodipodi:namedview
     id="namedview1"
     pagecolor="#ffffff"
     bordercolor="#000000"
     borderopacity="0.25"
     inkscape:showpageshadow="2"
     inkscape:pageopacity="0.0"
     inkscape:pagecheckerboard="0"
     inkscape:deskcolor="#d1d1d1"
     inkscape:zoom="42.75"
     inkscape:cx="10"
     inkscape:cy="10"
     inkscape:window-width="1920"
     inkscape:window-height="1057"
     inkscape:window-x="-8"
     inkscape:window-y="-8"
     inkscape:window-maximized="1"
     inkscape:current-layer="svg1" />
  <path
     style="baseline-shift:baseline;display:inline;overflow:visible;vector-effect:none;fill:#ffffff;fill-opacity:0.9;stroke-linecap:round;stroke-miterlimit:16;enable-background:accumulate;stop-color:#000000;stop-opacity:1;opacity:1"
     d="m 5.1660156,3.4160156 c -0.93342,0 -1.5032786,-0.038174 -2.0957031,0.2636719 C 2.6156637,3.9113393 2.2453174,4.2816777 2.0136719,4.7363281 1.7118074,5.3287576 1.75,5.9005644 1.75,6.8339844 v 6.3320316 c 0,0.9334 -0.038206,1.505233 0.2636719,2.097656 0.2316368,0.454633 0.6019726,0.824964 1.0566406,1.05664 0.5923997,0.30175 1.1622831,0.263672 2.0957031,0.263672 h 9.6679684 c 0.9335,0 1.503311,0.03809 2.095703,-0.263672 0.454638,-0.231668 0.825043,-0.601856 1.056641,-1.05664 C 18.288283,14.671229 18.25,14.099416 18.25,13.166016 V 6.8339844 c 0,-0.93342 0.03827,-1.505207 -0.263672,-2.0976563 C 17.754722,4.2815268 17.384306,3.9113313 16.929687,3.6796875 16.33727,3.3778286 15.767484,3.4160156 14.833984,3.4160156 Z m 0,1.5 h 9.6679684 c 0.9335,0 1.295434,0.038168 1.416016,0.099609 0.172581,0.087936 0.312597,0.2299451 0.400391,0.4023437 0.03789,0.074345 0.04376,0.5378372 0.06055,0.8730469 l -4.167968,2.7792969 c -1.0692,0.7128 -1.54525,1.0066025 -1.941406,1.1015625 -0.395759,0.09479 -0.8073247,0.0948 -1.2031255,0 C 9.0022588,10.076913 8.5262204,9.7831119 7.4570312,9.0703125 L 3.2890625,6.2910156 C 3.3058452,5.9557926 3.3117215,5.4923262 3.3496094,5.4179687 3.4375238,5.2454192 3.5774288,5.1035532 3.75,5.015625 3.8706155,4.9541704 4.2325956,4.9160156 5.1660156,4.9160156 Z M 3.25,8.0683594 6.625,10.318359 c 1.0691909,0.712801 1.6643668,1.130462 2.4238281,1.3125 0.6254592,0.149803 1.2769019,0.149807 1.9023439,0 0.759443,-0.18204 1.354628,-0.5997 2.423828,-1.3125 L 16.75,8.0683594 v 5.0976566 c 0,0.9334 -0.03816,1.295458 -0.09961,1.416015 -0.0878,0.172416 -0.227829,0.314412 -0.400391,0.402344 -0.120607,0.06144 -0.482516,0.09961 -1.416016,0.09961 H 5.1660156 c -0.93342,0 -1.2953753,-0.03816 -1.4160156,-0.09961 C 3.577448,14.896451 3.4375326,14.754598 3.3496094,14.582031 3.2881674,14.461454 3.25,14.099416 3.25,13.166016 Z"
     id="path1" />
</svg>
