<svg width="32" height="32" viewBox="0 0 32 32" fill="none" xmlns="http://www.w3.org/2000/svg">
<path d="M23.4132 2.66669H8.5465C5.3065 2.66669 2.6665 5.30669 2.6665 8.54669V17.2134V17.48C2.6665 20.7334 5.3065 23.36 8.5465 23.36H13.6665C14.3998 23.36 14.9998 23.96 14.9998 24.6934V25.9867C14.9998 26.72 14.3998 27.32 13.6665 27.32H10.4398C9.89317 27.32 9.43984 27.7734 9.43984 28.32C9.43984 28.8667 9.87984 29.3334 10.4398 29.3334H21.5732C22.1198 29.3334 22.5732 28.88 22.5732 28.3334C22.5732 27.7867 22.1198 27.3334 21.5732 27.3334H18.3465C17.6132 27.3334 17.0132 26.7334 17.0132 26V24.7067C17.0132 23.9734 17.6132 23.3734 18.3465 23.3734H23.4265C26.6798 23.3734 29.3065 20.7334 29.3065 17.4934V17.2267V8.56002C29.2932 5.30669 26.6532 2.66669 23.4132 2.66669Z" fill="#E11D48"/>
</svg>
