<?xml version="1.0" encoding="UTF-8" standalone="no"?>
<svg
   width="20"
   height="20"
   viewBox="0 0 20 20"
   fill="none"
   version="1.1"
   id="svg1"
   sodipodi:docname="upload.svg"
   inkscape:version="1.4.2 (f4327f4, 2025-05-13)"
   xmlns:inkscape="http://www.inkscape.org/namespaces/inkscape"
   xmlns:sodipodi="http://sodipodi.sourceforge.net/DTD/sodipodi-0.dtd"
   xmlns="http://www.w3.org/2000/svg"
   xmlns:svg="http://www.w3.org/2000/svg">
  <sodipodi:namedview
     id="namedview1"
     pagecolor="#ffffff"
     bordercolor="#000000"
     borderopacity="0.25"
     inkscape:showpageshadow="2"
     inkscape:pageopacity="0.0"
     inkscape:pagecheckerboard="0"
     inkscape:deskcolor="#d1d1d1"
     showgrid="false"
     inkscape:zoom="42.75"
     inkscape:cx="10"
     inkscape:cy="10"
     inkscape:window-width="1920"
     inkscape:window-height="1057"
     inkscape:window-x="-8"
     inkscape:window-y="-8"
     inkscape:window-maximized="1"
     inkscape:current-layer="svg1" />
  <g
     clip-path="url(#clip0_380_372)"
     id="g1">
    <path
       style="baseline-shift:baseline;display:inline;overflow:visible;vector-effect:none;fill:#535862;stroke-linecap:round;stroke-linejoin:round;enable-background:accumulate;stop-color:#000000;stop-opacity:1;opacity:1"
       d="M 7.21875,1.6738281 C 6.0858703,1.715565 4.9776969,2.0130182 3.9765625,2.5449219 2.9754431,3.0768122 2.1081541,3.8286972 1.4394531,4.7441406 0.77075322,5.6595714 0.31745744,6.714604 0.11523437,7.8300781 -0.08698971,8.9455516 -0.03329518,10.093616 0.27148438,11.185547 0.57626811,12.277467 1.1243494,13.285236 1.875,14.134766 A 0.83333498,0.83333498 0 0 0 3.0527344,14.207031 0.83333498,0.83333498 0 0 0 3.125,13.03125 C 2.5410506,12.37038 2.1140094,11.585608 1.8769531,10.736328 1.6398887,9.8869993 1.5985675,8.9965327 1.7558594,8.1289063 1.9131503,7.2612804 2.2650362,6.4405449 2.7851563,5.7285156 3.3052753,5.0164791 3.9791319,4.4312878 4.7578125,4.0175781 5.5364981,3.6038618 6.4000897,3.3723069 7.28125,3.3398438 8.1624188,3.3073719 9.0387091,3.4747897 9.8457031,3.8300781 10.65273,4.1853695 11.368309,4.7187797 11.939453,5.390625 c 0.571115,0.6718187 0.982344,1.4646123 1.203125,2.3183594 a 0.83341832,0.83341832 0 0 0 0.806641,0.625 H 15 c 0.740688,4.881e-4 1.458278,0.2463578 2.042969,0.7011719 0.58467,0.4547973 1.00093,1.0908377 1.183593,1.8085937 0.182761,0.717917 0.122282,1.477381 -0.173828,2.15625 -0.296036,0.678964 -0.810549,1.239189 -1.460937,1.59375 a 0.83333498,0.83333498 0 0 0 -0.332031,1.130859 0.83333498,0.83333498 0 0 0 1.130859,0.332032 c 0.975212,-0.531639 1.74549,-1.372389 2.189453,-2.390625 0.44409,-1.018132 0.535759,-2.155939 0.261719,-3.232422 C 19.56786,9.3571895 18.943136,8.4026857 18.066406,7.7207031 17.189697,7.0387372 16.110712,6.6667475 15,6.6660156 H 14.431641 C 14.127493,5.8273094 13.789307,4.9931975 13.208984,4.3105469 12.474729,3.4468321 11.555151,2.7614762 10.517578,2.3046875 9.4800321,1.8478959 8.3516412,1.63208 7.21875,1.6738281 Z M 10,9.1660156 a 0.83333498,0.83333498 0 0 0 -0.2441406,0.2441407 0.83341832,0.83341832 0 0 0 -0.3457031,0 L 6.078125,12.744141 a 0.83333498,0.83333498 0 0 0 0,1.177734 0.83333498,0.83333498 0 0 0 1.1777344,0 L 9.1660156,12.013672 V 17.5 A 0.83333498,0.83333498 0 0 0 10,18.333984 0.83333498,0.83333498 0 0 0 10.833984,17.5 v -5.486328 l 1.910157,1.908203 a 0.83333498,0.83333498 0 0 0 1.177734,0 0.83333498,0.83333498 0 0 0 0,-1.177734 L 10.589844,9.4101563 a 0.83341832,0.83341832 0 0 0 -0.345703,0 A 0.83333498,0.83333498 0 0 0 10,9.1660156 Z"
       id="path1" />
  </g>
  <defs
     id="defs1">
    <clipPath
       id="clip0_380_372">
      <rect
         width="20"
         height="20"
         fill="white"
         id="rect1" />
    </clipPath>
  </defs>
</svg>
