<?xml version="1.0" encoding="UTF-8" standalone="no"?>
<svg
   width="32"
   height="32"
   viewBox="0 0 32 32"
   fill="none"
   version="1.1"
   id="svg1"
   sodipodi:docname="user.svg"
   inkscape:version="1.4.2 (f4327f4, 2025-05-13)"
   xmlns:inkscape="http://www.inkscape.org/namespaces/inkscape"
   xmlns:sodipodi="http://sodipodi.sourceforge.net/DTD/sodipodi-0.dtd"
   xmlns="http://www.w3.org/2000/svg"
   xmlns:svg="http://www.w3.org/2000/svg">
  <sodipodi:namedview
     id="namedview1"
     pagecolor="#ffffff"
     bordercolor="#000000"
     borderopacity="0.25"
     inkscape:showpageshadow="2"
     inkscape:pageopacity="0.0"
     inkscape:pagecheckerboard="0"
     inkscape:deskcolor="#d1d1d1"
     inkscape:zoom="26.71875"
     inkscape:cx="16"
     inkscape:cy="16"
     inkscape:window-width="1920"
     inkscape:window-height="1057"
     inkscape:window-x="-8"
     inkscape:window-y="-8"
     inkscape:window-maximized="1"
     inkscape:current-layer="g1" />
  <g
     clip-path="url(#clip0_26_508)"
     id="g1">
    <path
       d="m 16,13.3333 c 3.676,0 6.6667,-2.9906 6.6667,-6.66663 C 22.6667,2.99067 19.676,0 16,0 12.324,0 9.33333,2.99067 9.33333,6.66667 9.33333,10.3427 12.324,13.3333 16,13.3333 Z m 3.2173,1.84 c 3.5187,1.1187 6.252,4.0147 7.136,7.632 C 26.5013,23.4107 26.044,24 25.42,24 h -7.136 l -1.488,-5.196 z m -13.57197,7.632 c 0.884,-3.6173 3.61734,-6.5133 7.13597,-7.632 L 15.2027,18.804 13.7147,24 H 6.57867 c -0.624,0 -1.08,-0.5893 -0.93334,-1.1947 z M 32,28 c 0,0.736 -0.5973,1.3333 -1.3333,1.3333 h -1.3334 v 1.3334 C 29.3333,31.4027 28.736,32 28,32 H 4 C 3.264,32 2.66667,31.4027 2.66667,30.6667 V 29.3333 H 1.33333 C 0.597333,29.3333 0,28.736 0,28 0,27.264 0.597333,26.6667 1.33333,26.6667 H 30.6667 C 31.4027,26.6667 32,27.264 32,28 Z"
       fill="#db2777"
       id="path1"
       sodipodi:nodetypes="sssssccscccccccscsscsssscsssss" />
  </g>
  <defs
     id="defs1">
    <clipPath
       id="clip0_26_508">
      <rect
         width="32"
         height="32"
         fill="white"
         id="rect1" />
    </clipPath>
  </defs>
</svg>
