<?xml version="1.0" encoding="UTF-8" standalone="no"?>
<svg
   width="24"
   height="24"
   viewBox="0 0 24 24"
   fill="none"
   version="1.1"
   id="svg2"
   sodipodi:docname="yutube.svg"
   inkscape:version="1.4.2 (f4327f4, 2025-05-13)"
   xmlns:inkscape="http://www.inkscape.org/namespaces/inkscape"
   xmlns:sodipodi="http://sodipodi.sourceforge.net/DTD/sodipodi-0.dtd"
   xmlns="http://www.w3.org/2000/svg"
   xmlns:svg="http://www.w3.org/2000/svg">
  <defs
     id="defs2" />
  <sodipodi:namedview
     id="namedview2"
     pagecolor="#ffffff"
     bordercolor="#000000"
     borderopacity="0.25"
     inkscape:showpageshadow="2"
     inkscape:pageopacity="0.0"
     inkscape:pagecheckerboard="0"
     inkscape:deskcolor="#d1d1d1"
     inkscape:zoom="35.625"
     inkscape:cx="12"
     inkscape:cy="12"
     inkscape:window-width="1920"
     inkscape:window-height="1057"
     inkscape:window-x="-8"
     inkscape:window-y="-8"
     inkscape:window-maximized="1"
     inkscape:current-layer="svg2" />
  <path
     style="baseline-shift:baseline;display:inline;overflow:visible;vector-effect:none;fill:#ffffff;fill-opacity:0.9;enable-background:accumulate;stop-color:#000000;stop-opacity:1;opacity:1"
     d="M 12,2.75 C 10.140908,2.75 8.3567724,2.9332022 6.6972656,3.2714844 5.6928162,3.4762393 4.9059482,3.6306679 4.1914062,3.9199219 3.4768643,4.2091758 2.8511106,4.6624163 2.3242188,5.3398437 1.7805336,6.038876 1.4972459,6.8352035 1.3710937,7.7421875 1.2449416,8.6491715 1.25,9.6842244 1.25,11.037109 v 1.925782 c 0,1.3529 -0.00506,2.387947 0.1210937,3.294921 0.1261526,0.906975 0.4094437,1.703317 0.9531251,2.402344 0.5268882,0.677429 1.1526442,1.130653 1.8671874,1.419922 0.7145433,0.289269 1.5014036,0.443686 2.5058594,0.648438 C 8.3567488,21.066741 10.1409,21.25 12,21.25 c 1.8591,0 3.643279,-0.183258 5.302734,-0.521484 1.004455,-0.204751 1.791307,-0.35917 2.50586,-0.648438 0.714553,-0.289268 1.3403,-0.742487 1.867187,-1.419922 0.543682,-0.699027 0.826973,-1.495369 0.953125,-2.402344 C 22.755059,15.350838 22.75,14.315791 22.75,12.962891 v -1.925782 c 0,-1.3528846 0.0051,-2.3879375 -0.121094,-3.2949215 C 22.502754,6.8352035 22.219466,6.038876 21.675781,5.3398437 21.14889,4.6624099 20.523146,4.2091745 19.808594,3.9199219 19.094042,3.6306692 18.307183,3.476239 17.302734,3.2714844 15.643255,2.9332016 13.859092,2.75 12,2.75 Z m 0,1.5 c 1.760308,0 3.446785,0.1747703 5.003906,0.4921875 1.004452,0.2047554 1.723115,0.358237 2.242188,0.5683594 0.519073,0.2101223 0.856385,0.4481626 1.246093,0.9492187 0.372915,0.4794678 0.547393,0.9489397 0.650391,1.6894531 C 21.245576,8.6897322 21.25,9.6842244 21.25,11.037109 v 1.925782 c 0,1.3529 -0.0044,2.34739 -0.107422,3.08789 -0.102997,0.740501 -0.277472,1.209981 -0.650391,1.689453 -0.389712,0.501065 -0.727021,0.739087 -1.246093,0.949219 -0.519072,0.210132 -1.237742,0.36361 -2.242188,0.568359 C 15.446762,19.575186 13.7603,19.75 12,19.75 10.2397,19.75 8.5532706,19.575187 6.9960937,19.257812 5.9916496,19.053064 5.2729655,18.899584 4.7539062,18.689453 4.234847,18.479322 3.8975342,18.241306 3.5078125,17.740234 3.1348938,17.260762 2.9604193,16.791282 2.8574219,16.050781 2.7544244,15.310281 2.75,14.315791 2.75,12.962891 V 11.037109 C 2.75,9.6842244 2.754424,8.6897322 2.8574219,7.9492187 2.9604197,7.2087053 3.1348976,6.7392334 3.5078125,6.2597656 3.8975307,5.758703 4.2348457,5.5206679 4.7539062,5.3105469 5.2729668,5.1004258 5.9916432,4.9469426 6.9960937,4.7421875 8.553247,4.4247696 10.239692,4.25 12,4.25 Z"
     id="path1" />
  <path
     style="baseline-shift:baseline;display:inline;overflow:visible;vector-effect:none;fill:#ffffff;fill-opacity:0.9;enable-background:accumulate;stop-color:#000000;stop-opacity:1;opacity:1"
     d="M 9.9824219,7.8125 C 9.6475188,7.900277 9.3349137,8.0563445 9.0664063,8.2734375 8.6000784,8.6504419 8.4029912,9.2219214 8.3242188,9.8144531 8.2454463,10.406985 8.25,11.09705 8.25,12 c 0,0.90295 -0.00455,1.593014 0.074219,2.185547 0.078772,0.592532 0.2758338,1.164025 0.7421875,1.541016 0.2684518,0.217018 0.5811588,0.373101 0.9160156,0.460937 0.5749921,0.150691 1.1467681,0.01321 1.7304691,-0.228516 0.583701,-0.241724 1.234912,-0.604931 2.09375,-1.078125 0.789594,-0.435147 1.392263,-0.762632 1.867187,-1.099609 0.474925,-0.336977 0.880111,-0.72789 1.017578,-1.289062 0.07894,-0.322327 0.07894,-0.662049 0,-0.984375 C 16.553939,10.94664 16.148755,10.555724 15.673828,10.21875 15.198901,9.8817757 14.596237,9.5542736 13.806641,9.1191406 12.947793,8.6459021 12.296605,8.2827352 11.712891,8.0410156 11.129176,7.799296 10.557399,7.6617875 9.9824219,7.8125 Z m 0.3808591,1.4511719 c 0.120623,-0.031618 0.32638,-0.021875 0.775391,0.1640625 0.44901,0.1859379 1.084507,0.5326179 1.943359,1.0058596 0.789604,0.435137 1.372836,0.758219 1.72461,1.007812 0.351773,0.249593 0.416802,0.379201 0.427734,0.423828 0.02206,0.09007 0.02206,0.179458 0,0.269532 -0.01093,0.04463 -0.07596,0.17423 -0.427734,0.423828 -0.351776,0.249598 -0.935004,0.572659 -1.72461,1.007812 -0.858862,0.473207 -1.494335,0.819909 -1.943359,1.00586 -0.449024,0.185951 -0.654783,0.195671 -0.775391,0.164062 -0.136343,-0.03576 -0.257547,-0.0982 -0.353515,-0.175781 C 9.9381293,14.502638 9.8662719,14.405496 9.8105469,13.986328 9.7548219,13.567161 9.75,12.90295 9.75,12 c 0,-0.90295 0.00482,-1.56716 0.060547,-1.986328 0.055725,-0.4191684 0.1275565,-0.5162833 0.1992191,-0.5742189 0.09591,-0.077547 0.217218,-0.1400582 0.353515,-0.1757812 z"
     id="path2" />
</svg>
