<svg width="156" height="156" viewBox="0 0 156 156" fill="none" xmlns="http://www.w3.org/2000/svg">
<path d="M71.181 2.43787C75.048 -0.145333 80.0895 -0.14533 83.9564 2.43787L87.2054 4.60779C89.9613 6.44879 93.3357 7.12018 96.5863 6.474L100.418 5.71228C104.979 4.8055 109.638 6.73457 112.222 10.601L114.393 13.849C116.235 16.6046 119.096 18.5165 122.346 19.1635L126.177 19.9261C130.738 20.8339 134.304 24.3993 135.211 28.9603L135.974 32.7914C136.621 36.0419 138.533 38.9029 141.288 40.7445L144.536 42.9154C148.403 45.4995 150.332 50.158 149.425 54.7191L148.663 58.5511C148.017 61.8018 148.689 65.1761 150.53 67.932L152.7 71.181C155.283 75.048 155.283 80.0895 152.7 83.9564L150.53 87.2054C148.689 89.9613 148.017 93.3357 148.663 96.5863L149.425 100.418C150.332 104.979 148.403 109.638 144.536 112.222L141.288 114.393C138.533 116.235 136.621 119.096 135.974 122.346L135.211 126.177C134.304 130.738 130.738 134.304 126.177 135.211L122.346 135.974C119.096 136.621 116.235 138.533 114.393 141.288L112.222 144.536C109.638 148.403 104.979 150.332 100.418 149.425L96.5863 148.663C93.3357 148.017 89.9613 148.689 87.2054 150.53L83.9564 152.7C80.0895 155.283 75.048 155.283 71.181 152.7L67.932 150.53C65.1761 148.689 61.8018 148.017 58.5511 148.663L54.7191 149.425C50.158 150.332 45.4995 148.403 42.9154 144.536L40.7445 141.288C38.9029 138.533 36.0419 136.621 32.7914 135.974L28.9603 135.211C24.3993 134.304 20.8339 130.738 19.9261 126.177L19.1635 122.346C18.5165 119.096 16.6046 116.235 13.849 114.393L10.601 112.222C6.73457 109.638 4.8055 104.979 5.71228 100.418L6.474 96.5863C7.12018 93.3357 6.44879 89.9613 4.60779 87.2054L2.43787 83.9564C-0.145333 80.0895 -0.14533 75.048 2.43787 71.181L4.60779 67.932C6.44879 65.1761 7.12018 61.8018 6.474 58.5511L5.71228 54.7191C4.8055 50.158 6.73457 45.4995 10.601 42.9154L13.849 40.7445C16.6046 38.9029 18.5165 36.0419 19.1635 32.7914L19.9261 28.9603C20.8339 24.3993 24.3993 20.8339 28.9603 19.9261L32.7914 19.1635C36.0419 18.5165 38.9029 16.6046 40.7445 13.849L42.9154 10.601C45.4995 6.73456 50.158 4.8055 54.7191 5.71228L58.5511 6.474C61.8018 7.12018 65.1761 6.44879 67.932 4.60779L71.181 2.43787Z" fill="#FFF1F2" stroke="#E11D48"/>
</svg>
