<svg width="58" height="58" viewBox="0 0 58 58" fill="none" xmlns="http://www.w3.org/2000/svg">
<rect x="1.5" y="1.5" width="55" height="55" rx="13.5" fill="white"/>
<rect x="1.5" y="1.5" width="55" height="55" rx="13.5" stroke="url(#paint0_linear_74_259053)" stroke-width="3"/>
<path d="M32.1333 15.6667H25.8667C24.48 15.6667 23.3467 16.7867 23.3467 18.1733V19.4267C23.3467 20.8133 24.4667 21.9333 25.8533 21.9333H32.1333C33.52 21.9333 34.64 20.8133 34.64 19.4267V18.1733C34.6533 16.7867 33.52 15.6667 32.1333 15.6667Z" fill="#DB2777"/>
<path d="M35.9867 19.4267C35.9867 21.5467 34.2534 23.28 32.1334 23.28H25.8667C23.7467 23.28 22.0134 21.5467 22.0134 19.4267C22.0134 18.68 21.2134 18.2133 20.5467 18.56C18.6667 19.56 17.3867 21.5467 17.3867 23.8267V36.3733C17.3867 39.6533 20.0667 42.3333 23.3467 42.3333H34.6534C37.9334 42.3333 40.6134 39.6533 40.6134 36.3733V23.8267C40.6134 21.5467 39.3334 19.56 37.4534 18.56C36.7867 18.2133 35.9867 18.68 35.9867 19.4267ZM33.4534 29.9733L28.1201 35.3067C27.9201 35.5067 27.6667 35.6 27.4134 35.6C27.1601 35.6 26.9067 35.5067 26.7067 35.3067L24.7067 33.3067C24.3201 32.92 24.3201 32.28 24.7067 31.8933C25.0934 31.5067 25.7334 31.5067 26.1201 31.8933L27.4134 33.1867L32.0401 28.56C32.4267 28.1733 33.0667 28.1733 33.4534 28.56C33.8401 28.9467 33.8401 29.5867 33.4534 29.9733Z" fill="#DB2777"/>
<defs>
<linearGradient id="paint0_linear_74_259053" x1="3" y1="3" x2="58.6144" y2="7.20584" gradientUnits="userSpaceOnUse">
<stop stop-color="#F472B6"/>
<stop offset="0.503582" stop-color="#DB9FBF" stop-opacity="0"/>
<stop offset="1" stop-color="#F472B6"/>
</linearGradient>
</defs>
</svg>
