<svg width="58" height="58" viewBox="0 0 58 58" fill="none" xmlns="http://www.w3.org/2000/svg">
<rect x="1.5" y="1.5" width="55" height="55" rx="13.5" fill="white"/>
<rect x="1.5" y="1.5" width="55" height="55" rx="13.5" stroke="url(#paint0_linear_74_259047)" stroke-width="3"/>
<path d="M41.7462 27.32L39.9329 25.2133C39.5862 24.8133 39.3062 24.0667 39.3062 23.5333V21.2667C39.3062 19.8533 38.1462 18.6933 36.7328 18.6933H34.4662C33.9462 18.6933 33.1862 18.4133 32.7862 18.0667L30.6795 16.2533C29.7595 15.4667 28.2529 15.4667 27.3195 16.2533L25.2262 18.08C24.8262 18.4133 24.0662 18.6933 23.5462 18.6933H21.2395C19.8262 18.6933 18.6662 19.8533 18.6662 21.2667V23.5467C18.6662 24.0667 18.3862 24.8133 18.0529 25.2133L16.2529 27.3333C15.4795 28.2533 15.4795 29.7467 16.2529 30.6667L18.0529 32.7867C18.3862 33.1867 18.6662 33.9333 18.6662 34.4533V36.7333C18.6662 38.1467 19.8262 39.3067 21.2395 39.3067H23.5462C24.0662 39.3067 24.8262 39.5867 25.2262 39.9333L27.3329 41.7467C28.2529 42.5333 29.7595 42.5333 30.6929 41.7467L32.7995 39.9333C33.1995 39.5867 33.9462 39.3067 34.4795 39.3067H36.7462C38.1595 39.3067 39.3195 38.1467 39.3195 36.7333V34.4667C39.3195 33.9467 39.5995 33.1867 39.9462 32.7867L41.7595 30.68C42.5329 29.76 42.5329 28.24 41.7462 27.32ZM34.5462 26.48L28.1062 32.92C27.9195 33.1067 27.6662 33.2133 27.3995 33.2133C27.1329 33.2133 26.8795 33.1067 26.6929 32.92L23.4662 29.6933C23.0795 29.3067 23.0795 28.6667 23.4662 28.28C23.8529 27.8933 24.4929 27.8933 24.8795 28.28L27.3995 30.8L33.1329 25.0667C33.5195 24.68 34.1595 24.68 34.5462 25.0667C34.9328 25.4533 34.9328 26.0933 34.5462 26.48Z" fill="#DB2777"/>
<defs>
<linearGradient id="paint0_linear_74_259047" x1="3" y1="3" x2="58.6144" y2="7.20584" gradientUnits="userSpaceOnUse">
<stop stop-color="#F472B6"/>
<stop offset="0.503582" stop-color="#DB9FBF" stop-opacity="0"/>
<stop offset="1" stop-color="#F472B6"/>
</linearGradient>
</defs>
</svg>
