<svg width="58" height="58" viewBox="0 0 58 58" fill="none" xmlns="http://www.w3.org/2000/svg">
<rect x="1.5" y="1.5" width="55" height="55" rx="13.5" fill="white"/>
<rect x="1.5" y="1.5" width="55" height="55" rx="13.5" stroke="url(#paint0_linear_74_259035)" stroke-width="3"/>
<path d="M34.0666 15.9467C33.5199 15.4 32.5732 15.7733 32.5732 16.5333V21.1867C32.5732 23.1333 34.2266 24.7467 36.2399 24.7467C37.5066 24.76 39.2666 24.76 40.7732 24.76C41.5332 24.76 41.9332 23.8667 41.3999 23.3333C39.4799 21.4 36.0399 17.92 34.0666 15.9467Z" fill="#DB2777"/>
<path d="M40.333 26.5867H36.4797C33.3197 26.5867 30.7463 24.0133 30.7463 20.8533V17C30.7463 16.2667 30.1463 15.6667 29.413 15.6667H23.7597C19.653 15.6667 16.333 18.3333 16.333 23.0933V34.9067C16.333 39.6667 19.653 42.3333 23.7597 42.3333H34.2397C38.3463 42.3333 41.6663 39.6667 41.6663 34.9067V27.92C41.6663 27.1867 41.0663 26.5867 40.333 26.5867ZM28.333 36.6667H22.9997C22.453 36.6667 21.9997 36.2133 21.9997 35.6667C21.9997 35.12 22.453 34.6667 22.9997 34.6667H28.333C28.8797 34.6667 29.333 35.12 29.333 35.6667C29.333 36.2133 28.8797 36.6667 28.333 36.6667ZM30.9997 31.3333H22.9997C22.453 31.3333 21.9997 30.88 21.9997 30.3333C21.9997 29.7867 22.453 29.3333 22.9997 29.3333H30.9997C31.5463 29.3333 31.9997 29.7867 31.9997 30.3333C31.9997 30.88 31.5463 31.3333 30.9997 31.3333Z" fill="#DB2777"/>
<defs>
<linearGradient id="paint0_linear_74_259035" x1="3" y1="3" x2="58.6144" y2="7.20584" gradientUnits="userSpaceOnUse">
<stop stop-color="#F472B6"/>
<stop offset="0.503582" stop-color="#DB9FBF" stop-opacity="0"/>
<stop offset="1" stop-color="#F472B6"/>
</linearGradient>
</defs>
</svg>
