<svg width="58" height="58" viewBox="0 0 58 58" fill="none" xmlns="http://www.w3.org/2000/svg">
<rect x="1.5" y="1.5" width="55" height="55" rx="13.5" fill="white"/>
<rect x="1.5" y="1.5" width="55" height="55" rx="13.5" stroke="url(#paint0_linear_74_263504)" stroke-width="3"/>
<path d="M27.7337 32.9333L25.267 35.4C24.747 35.92 23.9203 35.92 23.387 35.4133C23.2403 35.2667 23.0937 35.1333 22.947 34.9867C21.5737 33.6 20.3337 32.1467 19.227 30.6267C18.1337 29.1067 17.2537 27.5867 16.6137 26.08C15.987 24.56 15.667 23.1067 15.667 21.72C15.667 20.8133 15.827 19.9467 16.147 19.1467C16.467 18.3333 16.9737 17.5867 17.6803 16.92C18.5337 16.08 19.467 15.6667 20.4537 15.6667C20.827 15.6667 21.2003 15.7467 21.5337 15.9067C21.8803 16.0667 22.187 16.3067 22.427 16.6533L25.5203 21.0133C25.7603 21.3467 25.9337 21.6533 26.0537 21.9467C26.1737 22.2267 26.2403 22.5067 26.2403 22.76C26.2403 23.08 26.147 23.4 25.9603 23.7067C25.787 24.0133 25.5337 24.3333 25.2137 24.6533L24.2003 25.7067C24.0537 25.8533 23.987 26.0267 23.987 26.24C23.987 26.3467 24.0003 26.44 24.027 26.5467C24.067 26.6533 24.107 26.7333 24.1337 26.8133C24.3737 27.2533 24.787 27.8267 25.3737 28.52C25.9737 29.2133 26.6137 29.92 27.307 30.6267C27.4403 30.76 27.587 30.8933 27.7203 31.0267C28.2537 31.5467 28.267 32.4 27.7337 32.9333Z" fill="#E11D48"/>
<path d="M42.2931 37.44C42.2931 37.8133 42.2265 38.2 42.0931 38.5733C42.0531 38.68 42.0131 38.7867 41.9598 38.8933C41.7331 39.3733 41.4398 39.8267 41.0531 40.2533C40.3998 40.9733 39.6798 41.4933 38.8665 41.8267C38.8531 41.8267 38.8398 41.84 38.8265 41.84C38.0398 42.16 37.1865 42.3333 36.2665 42.3333C34.9065 42.3333 33.4531 42.0133 31.9198 41.36C30.3865 40.7067 28.8531 39.8267 27.3331 38.72C26.8131 38.3333 26.2931 37.9467 25.7998 37.5333L30.1598 33.1733C30.5331 33.4533 30.8665 33.6667 31.1465 33.8133C31.2131 33.84 31.2931 33.88 31.3865 33.92C31.4931 33.96 31.5998 33.9733 31.7198 33.9733C31.9465 33.9733 32.1198 33.8933 32.2665 33.7467L33.2798 32.7467C33.6131 32.4133 33.9331 32.16 34.2398 32C34.5465 31.8133 34.8531 31.72 35.1865 31.72C35.4398 31.72 35.7065 31.7733 35.9998 31.8933C36.2931 32.0133 36.5998 32.1867 36.9331 32.4133L41.3465 35.5467C41.6931 35.7867 41.9331 36.0667 42.0798 36.4C42.2131 36.7333 42.2931 37.0667 42.2931 37.44Z" fill="#E11D48"/>
<defs>
<linearGradient id="paint0_linear_74_263504" x1="3" y1="3" x2="58.6144" y2="7.20584" gradientUnits="userSpaceOnUse">
<stop stop-color="#FB7185"/>
<stop offset="0.503582" stop-color="#F43F5E" stop-opacity="0"/>
<stop offset="1" stop-color="#FB7185"/>
</linearGradient>
</defs>
</svg>
