<svg width="58" height="58" viewBox="0 0 58 58" fill="none" xmlns="http://www.w3.org/2000/svg">
<rect x="1.5" y="1.5" width="55" height="55" rx="13.5" fill="white"/>
<rect x="1.5" y="1.5" width="55" height="55" rx="13.5" stroke="url(#paint0_linear_64_242666)" stroke-width="3"/>
<path d="M20.3332 26.3333C22.9105 26.3333 24.9998 24.244 24.9998 21.6667C24.9998 19.0893 22.9105 17 20.3332 17C17.7558 17 15.6665 19.0893 15.6665 21.6667C15.6665 24.244 17.7558 26.3333 20.3332 26.3333Z" fill="#E11D48"/>
<path d="M20.3332 41C22.9105 41 24.9998 38.9107 24.9998 36.3334C24.9998 33.756 22.9105 31.6667 20.3332 31.6667C17.7558 31.6667 15.6665 33.756 15.6665 36.3334C15.6665 38.9107 17.7558 41 20.3332 41Z" fill="#E11D48"/>
<path d="M33.3333 28.9733L42.9333 21.8C43.3733 21.4667 43.4666 20.84 43.1333 20.4C42.7999 19.96 42.1733 19.8667 41.7333 20.2L31.6666 27.7333L24.2666 22.1867C23.8266 21.8667 23.1999 21.9467 22.8666 22.3867C22.5333 22.8267 22.6266 23.4533 23.0666 23.7867L29.9999 28.9733L22.1333 34.8667C21.6933 35.2 21.5999 35.8267 21.9333 36.2667C22.1333 36.5333 22.4266 36.6667 22.7333 36.6667C22.9466 36.6667 23.1466 36.6 23.3333 36.4667L31.6666 30.2267L41.7333 37.76C41.9066 37.8933 42.1199 37.96 42.3333 37.96C42.6399 37.96 42.9333 37.8267 43.1333 37.56C43.4666 37.12 43.3733 36.4933 42.9333 36.16L33.3333 28.9733Z" fill="#E11D48"/>
<defs>
<linearGradient id="paint0_linear_64_242666" x1="3" y1="3" x2="58.6144" y2="7.20584" gradientUnits="userSpaceOnUse">
<stop stop-color="#FB7185"/>
<stop offset="0.503582" stop-color="#F43F5E" stop-opacity="0"/>
<stop offset="1" stop-color="#FB7185"/>
</linearGradient>
</defs>
</svg>
