<svg width="58" height="58" viewBox="0 0 58 58" fill="none" xmlns="http://www.w3.org/2000/svg">
<rect x="1.5" y="1.5" width="55" height="55" rx="13.5" fill="white"/>
<rect x="1.5" y="1.5" width="55" height="55" rx="13.5" stroke="url(#paint0_linear_64_250880)" stroke-width="3"/>
<path d="M36.7467 20.32V21.3066L32.0268 18.5733C30.2401 17.5466 27.7468 17.5466 25.9734 18.5733L21.2534 21.32V20.32C21.2534 17.32 22.8934 15.6666 25.8934 15.6666H32.1068C35.1068 15.6666 36.7467 17.32 36.7467 20.32Z" fill="#DB2777"/>
<path d="M36.7865 23.6266L36.5998 23.5333L34.7865 22.4933L31.0265 20.3199C29.8798 19.6533 28.1198 19.6533 26.9732 20.3199L23.2132 22.4799L21.3998 23.5466L21.1598 23.6666C18.8265 25.2399 18.6665 25.5333 18.6665 28.0533V34.0799C18.6665 36.5999 18.8265 36.8933 21.2132 38.5066L26.9732 41.8266C27.5465 42.1733 28.2665 42.3199 28.9998 42.3199C29.7198 42.3199 30.4532 42.1599 31.0265 41.8266L36.8398 38.4666C39.1865 36.8933 39.3332 36.6133 39.3332 34.0799V28.0533C39.3332 25.5333 39.1732 25.2399 36.7865 23.6266ZM32.7198 30.9999L31.9065 31.9999C31.7732 32.1466 31.6798 32.4266 31.6932 32.6266L31.7732 33.9066C31.8265 34.6933 31.2665 35.0933 30.5332 34.8133L29.3465 34.3333C29.1598 34.2666 28.8532 34.2666 28.6665 34.3333L27.4798 34.7999C26.7465 35.0933 26.1865 34.6799 26.2398 33.8933L26.3198 32.6133C26.3332 32.4133 26.2398 32.1333 26.1065 31.9866L25.2798 30.9999C24.7732 30.3999 24.9998 29.7333 25.7598 29.5333L26.9998 29.2133C27.1998 29.1599 27.4265 28.9733 27.5332 28.8133L28.2265 27.7466C28.6532 27.0799 29.3332 27.0799 29.7732 27.7466L30.4665 28.8133C30.5732 28.9866 30.8132 29.1599 30.9998 29.2133L32.2398 29.5333C32.9998 29.7333 33.2265 30.3999 32.7198 30.9999Z" fill="#DB2777"/>
<defs>
<linearGradient id="paint0_linear_64_250880" x1="3" y1="3" x2="58.6144" y2="7.20584" gradientUnits="userSpaceOnUse">
<stop stop-color="#F472B6"/>
<stop offset="0.503582" stop-color="#DB9FBF" stop-opacity="0"/>
<stop offset="1" stop-color="#F472B6"/>
</linearGradient>
</defs>
</svg>
