<svg width="58" height="58" viewBox="0 0 58 58" fill="none" xmlns="http://www.w3.org/2000/svg">
<rect x="1.5" y="1.5" width="55" height="55" rx="13.5" fill="white"/>
<rect x="1.5" y="1.5" width="55" height="55" rx="13.5" stroke="url(#paint0_linear_64_242683)" stroke-width="3"/>
<path d="M34.6534 25.6934L40.9334 31.9734C41.3067 32.3467 41.96 32.1467 42.0667 31.6267C42.24 30.7734 42.3334 29.8934 42.3334 29C42.3334 25.9467 41.2934 23.1334 39.5734 20.8934C39.3334 20.5734 38.8534 20.56 38.5734 20.84L34.6534 24.76C34.4 25.0134 34.4 25.44 34.6534 25.6934Z" fill="#E11D48"/>
<path d="M32.3066 27.1067L29.9466 29.4667C29.6799 29.7334 29.6799 30.1467 29.9466 30.4134L37.7066 38.1734C37.9733 38.44 38.3999 38.44 38.6532 38.1734C39.4799 37.3067 40.1866 36.3334 40.7599 35.28C40.8932 35.0267 40.8399 34.6934 40.6399 34.4934L33.2532 27.1067C32.9866 26.8534 32.5599 26.8534 32.3066 27.1067Z" fill="#E11D48"/>
<path d="M27.5867 31.8266L25.24 34.1733C24.9734 34.44 24.9734 34.8533 25.24 35.12L31.8 41.6933C31.9734 41.8667 32.2267 41.9333 32.4534 41.8666C33.6934 41.5333 34.8667 41.0267 35.9334 40.36C36.2934 40.1333 36.3467 39.6266 36.04 39.32L28.5334 31.8133C28.2667 31.5733 27.84 31.5733 27.5867 31.8266Z" fill="#E11D48"/>
<path d="M37.1069 18.4267C34.4669 16.3867 31.0402 15.32 27.3602 15.76C21.3469 16.48 16.4802 21.36 15.7602 27.36C15.3202 31.04 16.3869 34.4534 18.4269 37.1067C18.6669 37.4267 19.1469 37.44 19.4269 37.16L37.1602 19.4267C37.4402 19.1467 37.4269 18.6667 37.1069 18.4267Z" fill="#E11D48"/>
<path d="M22.8668 36.56L20.8401 38.5867C20.5601 38.8667 20.5735 39.3467 20.8935 39.5867C22.9068 41.1467 25.3735 42.1333 28.0801 42.32C28.6535 42.36 28.9335 41.68 28.5201 41.2667L23.8135 36.56C23.5601 36.2933 23.1335 36.2933 22.8668 36.56Z" fill="#E11D48"/>
<defs>
<linearGradient id="paint0_linear_64_242683" x1="3" y1="3" x2="58.6144" y2="7.20584" gradientUnits="userSpaceOnUse">
<stop stop-color="#FB7185"/>
<stop offset="0.503582" stop-color="#F43F5E" stop-opacity="0"/>
<stop offset="1" stop-color="#FB7185"/>
</linearGradient>
</defs>
</svg>
