<svg width="58" height="58" viewBox="0 0 58 58" fill="none" xmlns="http://www.w3.org/2000/svg">
<rect x="1.5" y="1.5" width="55" height="55" rx="13.5" fill="white"/>
<rect x="1.5" y="1.5" width="55" height="55" rx="13.5" stroke="url(#paint0_linear_64_250888)" stroke-width="3"/>
<path d="M38.4935 32.92L38.9202 33.7867C39.1335 34.2134 39.6802 34.6134 40.1335 34.6934L40.7069 34.7867C42.4535 35.08 42.8535 36.36 41.6135 37.6134L41.0802 38.1467C40.7202 38.5067 40.5335 39.2 40.6402 39.7067L40.7069 40.0267C41.1869 42.1334 40.0669 42.9467 38.2402 41.84L37.8535 41.6C37.3869 41.32 36.6135 41.32 36.1469 41.6L35.7602 41.84C33.9202 42.9467 32.8135 42.1334 33.2935 40.0267L33.3602 39.7067C33.4669 39.2134 33.2802 38.5067 32.9202 38.1467L32.3869 37.6134C31.1469 36.3467 31.5469 35.08 33.2935 34.7867L33.8669 34.6934C34.3335 34.6134 34.8669 34.2134 35.0802 33.7867L35.5069 32.92C36.3335 31.2534 37.6669 31.2534 38.4935 32.92Z" fill="#DB2777"/>
<path d="M34.5865 15.6666H23.4132C18.5598 15.6666 15.6665 18.56 15.6665 23.4133V34.5866C15.6665 39.44 18.5598 42.3333 23.4132 42.3333H30.4532C30.9198 42.3333 31.2532 41.8533 31.1998 41.3866C31.1465 40.88 31.1732 40.28 31.3332 39.5866C31.3598 39.4933 31.3332 39.3866 31.2532 39.3066L30.9598 39.0133C29.8265 37.8666 29.4132 36.48 29.8132 35.2133C30.2265 33.96 31.3732 33.08 32.9598 32.8133L33.3598 32.7466L33.7198 32.0266C34.4532 30.5333 35.6532 29.6666 36.9998 29.6666C38.3465 29.6666 39.5465 30.5333 40.2798 32.0266L40.4798 32.44C40.5732 32.64 40.7598 32.7733 40.9732 32.8133C41.0932 32.84 41.2132 32.8666 41.3332 32.8933C41.7998 33.0133 42.3332 32.64 42.3332 32.1466V23.4133C42.3332 18.56 39.4398 15.6666 34.5865 15.6666ZM34.6798 24.9466L31.5998 28.92C31.2132 29.4133 30.6665 29.7333 30.0398 29.8C29.4265 29.88 28.7998 29.7066 28.3198 29.32L25.8798 27.4266C25.7865 27.3466 25.6798 27.3466 25.6265 27.36C25.5732 27.36 25.4798 27.3866 25.3998 27.4933L22.2265 31.6133C22.0265 31.8666 21.7332 32 21.4265 32C21.2132 32 20.9998 31.9333 20.8132 31.7866C20.3732 31.4533 20.2932 30.8266 20.6265 30.3866L23.7998 26.2666C24.1865 25.7733 24.7332 25.4533 25.3598 25.3733C25.9865 25.2933 26.5998 25.4666 27.0932 25.8533L29.5332 27.7733C29.6265 27.8533 29.7198 27.84 29.7865 27.84C29.8398 27.84 29.9332 27.8133 30.0132 27.7066L33.0932 23.7333C33.4265 23.2933 34.0532 23.2133 34.4932 23.56C34.9465 23.8933 35.0132 24.52 34.6798 24.9466Z" fill="#DB2777"/>
<defs>
<linearGradient id="paint0_linear_64_250888" x1="3" y1="3" x2="58.6144" y2="7.20584" gradientUnits="userSpaceOnUse">
<stop stop-color="#F472B6"/>
<stop offset="0.503582" stop-color="#DB9FBF" stop-opacity="0"/>
<stop offset="1" stop-color="#F472B6"/>
</linearGradient>
</defs>
</svg>
