<svg width="32" height="32" viewBox="0 0 32 32" fill="none" xmlns="http://www.w3.org/2000/svg">
<path d="M25.4935 19.92L25.9202 20.7867C26.1335 21.2134 26.6802 21.6134 27.1335 21.6934L27.7069 21.7867C29.4535 22.08 29.8535 23.36 28.6135 24.6134L28.0802 25.1467C27.7202 25.5067 27.5335 26.2 27.6402 26.7067L27.7069 27.0267C28.1869 29.1334 27.0669 29.9467 25.2402 28.84L24.8535 28.6C24.3869 28.32 23.6135 28.32 23.1469 28.6L22.7602 28.84C20.9202 29.9467 19.8135 29.1334 20.2935 27.0267L20.3602 26.7067C20.4669 26.2134 20.2802 25.5067 19.9202 25.1467L19.3869 24.6134C18.1469 23.3467 18.5469 22.08 20.2935 21.7867L20.8669 21.6934C21.3335 21.6134 21.8669 21.2134 22.0802 20.7867L22.5069 19.92C23.3335 18.2534 24.6669 18.2534 25.4935 19.92Z" fill="#DB2777"/>
<path d="M21.5865 2.66663H10.4132C5.55984 2.66663 2.6665 5.55996 2.6665 10.4133V21.5866C2.6665 26.44 5.55984 29.3333 10.4132 29.3333H17.4532C17.9198 29.3333 18.2532 28.8533 18.1998 28.3866C18.1465 27.88 18.1732 27.28 18.3332 26.5866C18.3598 26.4933 18.3332 26.3866 18.2532 26.3066L17.9598 26.0133C16.8265 24.8666 16.4132 23.48 16.8132 22.2133C17.2265 20.96 18.3732 20.08 19.9598 19.8133L20.3598 19.7466L20.7198 19.0266C21.4532 17.5333 22.6532 16.6666 23.9998 16.6666C25.3465 16.6666 26.5465 17.5333 27.2798 19.0266L27.4798 19.44C27.5732 19.64 27.7598 19.7733 27.9732 19.8133C28.0932 19.84 28.2132 19.8666 28.3332 19.8933C28.7998 20.0133 29.3332 19.64 29.3332 19.1466V10.4133C29.3332 5.55996 26.4398 2.66663 21.5865 2.66663ZM21.6798 11.9466L18.5998 15.92C18.2132 16.4133 17.6665 16.7333 17.0398 16.8C16.4265 16.88 15.7998 16.7066 15.3198 16.32L12.8798 14.4266C12.7865 14.3466 12.6798 14.3466 12.6265 14.36C12.5732 14.36 12.4798 14.3866 12.3998 14.4933L9.2265 18.6133C9.0265 18.8666 8.73317 19 8.4265 19C8.21317 19 7.99984 18.9333 7.81317 18.7866C7.37317 18.4533 7.29317 17.8266 7.6265 17.3866L10.7998 13.2666C11.1865 12.7733 11.7332 12.4533 12.3598 12.3733C12.9865 12.2933 13.5998 12.4666 14.0932 12.8533L16.5332 14.7733C16.6265 14.8533 16.7198 14.84 16.7865 14.84C16.8398 14.84 16.9332 14.8133 17.0132 14.7066L20.0932 10.7333C20.4265 10.2933 21.0532 10.2133 21.4932 10.56C21.9465 10.8933 22.0132 11.52 21.6798 11.9466Z" fill="#DB2777"/>
</svg>
