<svg width="32" height="32" viewBox="0 0 32 32" fill="none" xmlns="http://www.w3.org/2000/svg">
<path d="M21.6534 12.6934L27.9334 18.9734C28.3067 19.3467 28.96 19.1467 29.0667 18.6267C29.24 17.7734 29.3334 16.8934 29.3334 16C29.3334 12.9467 28.2934 10.1334 26.5734 7.89335C26.3334 7.57335 25.8534 7.56002 25.5734 7.84002L21.6534 11.76C21.4 12.0134 21.4 12.44 21.6534 12.6934Z" fill="#E11D48"/>
<path d="M19.3066 14.1067L16.9466 16.4667C16.6799 16.7334 16.6799 17.1467 16.9466 17.4134L24.7066 25.1734C24.9733 25.44 25.3999 25.44 25.6532 25.1734C26.4799 24.3067 27.1866 23.3334 27.7599 22.28C27.8932 22.0267 27.8399 21.6934 27.6399 21.4934L20.2532 14.1067C19.9866 13.8534 19.5599 13.8534 19.3066 14.1067Z" fill="#E11D48"/>
<path d="M14.5867 18.8266L12.24 21.1733C11.9734 21.44 11.9734 21.8533 12.24 22.12L18.8 28.6933C18.9734 28.8667 19.2267 28.9333 19.4534 28.8666C20.6934 28.5333 21.8667 28.0267 22.9334 27.36C23.2934 27.1333 23.3467 26.6266 23.04 26.32L15.5334 18.8133C15.2667 18.5733 14.84 18.5733 14.5867 18.8266Z" fill="#E11D48"/>
<path d="M24.1069 5.42669C21.4669 3.38669 18.0402 2.32003 14.3602 2.76003C8.34688 3.48003 3.48021 8.36003 2.76021 14.36C2.32021 18.04 3.38688 21.4534 5.42688 24.1067C5.66688 24.4267 6.14688 24.44 6.42688 24.16L24.1602 6.42669C24.4402 6.14669 24.4269 5.66669 24.1069 5.42669Z" fill="#E11D48"/>
<path d="M9.86681 23.56L7.84014 25.5867C7.56014 25.8667 7.57347 26.3467 7.89347 26.5867C9.90681 28.1467 12.3735 29.1333 15.0801 29.32C15.6535 29.36 15.9335 28.68 15.5201 28.2667L10.8135 23.56C10.5601 23.2933 10.1335 23.2933 9.86681 23.56Z" fill="#E11D48"/>
</svg>
