<svg width="32" height="32" viewBox="0 0 32 32" fill="none" xmlns="http://www.w3.org/2000/svg">
<path d="M7.33317 13.3333C9.9105 13.3333 11.9998 11.244 11.9998 8.66667C11.9998 6.08934 9.9105 4 7.33317 4C4.75584 4 2.6665 6.08934 2.6665 8.66667C2.6665 11.244 4.75584 13.3333 7.33317 13.3333Z" fill="#E11D48"/>
<path d="M7.33317 28C9.9105 28 11.9998 25.9107 11.9998 23.3334C11.9998 20.756 9.9105 18.6667 7.33317 18.6667C4.75584 18.6667 2.6665 20.756 2.6665 23.3334C2.6665 25.9107 4.75584 28 7.33317 28Z" fill="#E11D48"/>
<path d="M20.3333 15.9733L29.9333 8.8C30.3733 8.46666 30.4666 7.84 30.1333 7.4C29.7999 6.96 29.1733 6.86666 28.7333 7.2L18.6666 14.7333L11.2666 9.18666C10.8266 8.86666 10.1999 8.94666 9.86661 9.38666C9.53327 9.82666 9.62661 10.4533 10.0666 10.7867L16.9999 15.9733L9.13327 21.8667C8.69327 22.2 8.59994 22.8267 8.93327 23.2667C9.13327 23.5333 9.42661 23.6667 9.73327 23.6667C9.94661 23.6667 10.1466 23.6 10.3333 23.4667L18.6666 17.2267L28.7333 24.76C28.9066 24.8933 29.1199 24.96 29.3333 24.96C29.6399 24.96 29.9333 24.8267 30.1333 24.56C30.4666 24.12 30.3733 23.4933 29.9333 23.16L20.3333 15.9733Z" fill="#E11D48"/>
</svg>
