<svg width="32" height="32" viewBox="0 0 32 32" fill="none" xmlns="http://www.w3.org/2000/svg">
<path d="M21.5865 2.66663H10.4132C5.55984 2.66663 2.6665 5.55996 2.6665 10.4133V21.5733C2.6665 26.44 5.55984 29.3333 10.4132 29.3333H21.5732C26.4265 29.3333 29.3198 26.44 29.3198 21.5866V10.4133C29.3332 5.55996 26.4398 2.66663 21.5865 2.66663ZM10.1732 24.2C10.1732 24.7466 9.71984 25.2 9.17317 25.2C8.6265 25.2 8.17317 24.7466 8.17317 24.2V21.44C8.17317 20.8933 8.6265 20.44 9.17317 20.44C9.71984 20.44 10.1732 20.8933 10.1732 21.44V24.2ZM16.9998 24.2C16.9998 24.7466 16.5465 25.2 15.9998 25.2C15.4532 25.2 14.9998 24.7466 14.9998 24.2V18.6666C14.9998 18.12 15.4532 17.6666 15.9998 17.6666C16.5465 17.6666 16.9998 18.12 16.9998 18.6666V24.2ZM23.8265 24.2C23.8265 24.7466 23.3732 25.2 22.8265 25.2C22.2798 25.2 21.8265 24.7466 21.8265 24.2V15.9066C21.8265 15.36 22.2798 14.9066 22.8265 14.9066C23.3732 14.9066 23.8265 15.36 23.8265 15.9066V24.2ZM23.8265 11.6933C23.8265 12.24 23.3732 12.6933 22.8265 12.6933C22.2798 12.6933 21.8265 12.24 21.8265 11.6933V10.4C18.4265 13.8933 14.1732 16.36 9.41317 17.5466C9.33317 17.5733 9.25317 17.5733 9.17317 17.5733C8.71984 17.5733 8.31984 17.2666 8.19984 16.8133C8.0665 16.28 8.3865 15.7333 8.93317 15.6C13.4265 14.48 17.4265 12.12 20.5998 8.78663H18.9332C18.3865 8.78663 17.9332 8.33329 17.9332 7.78663C17.9332 7.23996 18.3865 6.78663 18.9332 6.78663H22.8398C22.8932 6.78663 22.9332 6.81329 22.9865 6.81329C23.0532 6.82663 23.1198 6.82663 23.1865 6.85329C23.2532 6.87996 23.3065 6.91996 23.3732 6.95996C23.4132 6.98663 23.4532 6.99996 23.4932 7.02663C23.5065 7.03996 23.5065 7.05329 23.5198 7.05329C23.5732 7.10663 23.6132 7.15996 23.6532 7.21329C23.6932 7.26663 23.7332 7.30663 23.7465 7.35996C23.7732 7.41329 23.7732 7.46663 23.7865 7.53329C23.7998 7.59996 23.8265 7.66663 23.8265 7.74663C23.8265 7.75996 23.8398 7.77329 23.8398 7.78663V11.6933H23.8265Z" fill="#DB2777"/>
</svg>
