<svg width="32" height="32" viewBox="0 0 32 32" fill="none" xmlns="http://www.w3.org/2000/svg">
<g clip-path="url(#clip0_26_506)">
<path d="M32 11.3067V26.6667C32 27.0203 31.8595 27.3595 31.6095 27.6095C31.3594 27.8596 31.0203 28 30.6667 28C30.3131 28 29.9739 27.8596 29.7239 27.6095C29.4738 27.3595 29.3333 27.0203 29.3333 26.6667V15.6694L19.4667 20.384C18.4263 20.9981 17.2387 21.3179 16.0307 21.3094C14.7638 21.3113 13.52 20.9709 12.4307 20.324L2.59067 15.64C1.81718 15.2241 1.16908 14.6088 0.713632 13.8578C0.25818 13.1069 0.0119665 12.2478 0.000538824 11.3697C-0.0108888 10.4915 0.212886 9.6263 0.648643 8.8638C1.0844 8.1013 1.71626 7.4693 2.47867 7.03337C2.51467 7.01204 2.55334 6.99204 2.59067 6.97337L12.5333 2.22937C13.6068 1.61292 14.825 1.29354 16.0628 1.30409C17.3006 1.31463 18.5132 1.65472 19.576 2.28937L29.4093 6.97337C30.1853 7.40268 30.8337 8.02976 31.2887 8.79087C31.7437 9.55199 31.9892 10.42 32 11.3067ZM16.0293 23.9734C14.3234 23.9772 12.6468 23.5301 11.1693 22.6774L5.33334 19.892V23.492C5.33413 24.9154 5.78982 26.3013 6.63391 27.4473C7.47799 28.5934 8.66628 29.4397 10.0253 29.8627C11.9671 30.4202 13.9799 30.6911 16 30.6667C18.0203 30.6894 20.0332 30.4167 21.9747 29.8574C23.3337 29.4344 24.522 28.5881 25.3661 27.442C26.2102 26.2959 26.6659 24.9101 26.6667 23.4867V19.8987L20.7213 22.7387C19.2942 23.5586 17.6752 23.9856 16.0293 23.976V23.9734Z" fill="#E11D48"/>
</g>
<defs>
<clipPath id="clip0_26_506">
<rect width="32" height="32" fill="white"/>
</clipPath>
</defs>
</svg>
