<?xml version="1.0" encoding="UTF-8" standalone="no"?>
<svg
   width="24"
   height="24"
   viewBox="0 0 24 24"
   fill="none"
   version="1.1"
   id="svg1"
   sodipodi:docname="verify.svg"
   inkscape:version="1.4.2 (f4327f4, 2025-05-13)"
   xmlns:inkscape="http://www.inkscape.org/namespaces/inkscape"
   xmlns:sodipodi="http://sodipodi.sourceforge.net/DTD/sodipodi-0.dtd"
   xmlns="http://www.w3.org/2000/svg"
   xmlns:svg="http://www.w3.org/2000/svg">
  <defs
     id="defs1" />
  <sodipodi:namedview
     id="namedview1"
     pagecolor="#ffffff"
     bordercolor="#000000"
     borderopacity="0.25"
     inkscape:showpageshadow="2"
     inkscape:pageopacity="0.0"
     inkscape:pagecheckerboard="0"
     inkscape:deskcolor="#d1d1d1"
     inkscape:zoom="35.625"
     inkscape:cx="12"
     inkscape:cy="12"
     inkscape:window-width="1920"
     inkscape:window-height="1057"
     inkscape:window-x="-8"
     inkscape:window-y="-8"
     inkscape:window-maximized="1"
     inkscape:current-layer="svg1" />
  <path
     d="m 21.50376,10.74 -1.36,-1.58 c -0.26,-0.3 -0.47,-0.86 -0.47,-1.26 V 6.2 c 0,-1.06 -0.87,-1.93 -1.93,-1.93 h -1.7 c -0.39,0 -0.96,-0.21 -1.26,-0.47 l -1.58,-1.36 c -0.69,-0.59 -1.82,-0.59 -2.52,0 L 9.1137396,3.81 c -0.3,0.25 -0.87,0.46 -1.26,0.46 h -1.73 c -1.06,0 -1.93,0.87 -1.93,1.93 v 1.71 c 0,0.39 -0.21,0.95 -0.46,1.25 l -1.35,1.59 c -0.58,0.69 -0.58,1.81 0,2.5 l 1.35,1.59 c 0.25,0.3 0.46,0.86 0.46,1.25 v 1.71 c 0,1.06 0.87,1.93 1.93,1.93 h 1.73 c 0.39,0 0.96,0.21 1.26,0.47 l 1.5800204,1.36 c 0.69,0.59 1.82,0.59 2.52,0 l 1.58,-1.36 c 0.3,-0.26 0.86,-0.47 1.26,-0.47 h 1.7 c 1.06,0 1.93,-0.87 1.93,-1.93 v -1.7 c 0,-0.39 0.21,-0.96 0.47,-1.26 l 1.36,-1.58 c 0.58,-0.69 0.58,-1.83 -0.01,-2.52 z m -5.4,-0.63 -4.83,4.83 c -0.14,0.14 -0.33,0.22 -0.53,0.22 -0.2,0 -0.39,-0.08 -0.53,-0.22 L 7.7937396,12.52 c -0.29,-0.29 -0.29,-0.77 0,-1.06 0.29,-0.29 0.77,-0.29 1.06,0 l 1.8900204,1.89 4.3,-4.3 c 0.29,-0.29 0.77,-0.29 1.06,0 0.29,0.29 0.29,0.77 0,1.06 z"
     fill="#e11d48"
     id="path1" />
</svg>
