<svg width="112" height="110" viewBox="0 0 112 110" fill="none" xmlns="http://www.w3.org/2000/svg">
<g opacity="0.22">
<path d="M89.4102 91.8792C89.4191 91.5345 89.5086 91.2615 89.5668 90.9572C87.9915 90.908 86.443 90.0845 85.445 88.1601C82.7463 82.9014 81.5603 76.3718 77.7875 71.8785C74.1758 67.6044 69.8839 64.4493 66.6392 59.8351C66.487 59.6024 66.854 59.3965 67.0062 59.6203C68.6711 61.9475 70.9535 63.4154 73.4419 64.5925C71.9337 63.4378 70.497 62.2295 69.1097 60.9271C67.7805 59.9201 66.5184 58.6446 65.3458 56.8724C65.1936 56.6397 65.5651 56.4472 65.7217 56.662C66.3975 57.5706 67.1763 58.3045 68.0176 58.9624C70.13 59.9202 72.3991 60.5914 74.6995 61.1867C75.2992 61.2135 75.8675 61.2628 76.418 61.4462C76.6149 61.5134 76.7492 61.6298 76.888 61.7282C80.9696 62.7262 85.0556 63.6885 88.4928 65.8725C88.6807 65.9933 88.8463 66.1231 89.0298 66.2573C90.1845 66.9376 91.263 67.7969 92.2208 68.8486C96.2666 72.8183 98.5177 78.0859 98.3119 84.0337C98.2537 85.8955 97.2333 87.0726 95.9488 87.6902C95.8459 88.0795 95.6355 88.451 95.2372 88.7284C94.2078 89.9189 93.1785 91.1183 92.1491 92.3043C91.8672 93.8663 89.3162 93.4366 89.4102 91.8792Z" fill="#DDA1C0"/>
<path d="M73.0884 93.822C65.0326 85.2426 67.597 69.2251 64.2315 58.672C64.142 58.4035 64.5582 58.3005 64.6478 58.5601C67.0824 66.4324 69.6423 73.9601 71.2803 82.074C73.0481 90.8056 81.7797 103.117 91.9344 95.2452C94.3735 93.3521 97.014 97.0756 94.4138 98.5928C86.9175 102.934 78.6872 99.8012 73.0884 93.822Z" fill="#DDA1C0"/>
<path d="M65.3772 51.1313C65.1758 51.1403 65.0595 50.8628 65.2072 50.733C71.2803 45.4251 76.5255 47.636 83.6862 49.6365C90.3904 51.5386 94.2974 47.8642 98.7773 43.541C100.084 42.27 101.221 40.8378 102.188 39.2893C103.535 37.1322 102.935 34.7154 105.423 35.078C101.033 34.429 100.921 28.3335 105.54 28.0874C118.608 27.3847 108.198 45.0984 104.3 49.2472C100.013 53.7987 94.7494 56.833 88.4749 57.0344C80.4594 57.2805 73.5807 50.8673 65.3772 51.1313Z" fill="#DDA1C0"/>
<path d="M63.5917 48.2401C66.6976 45.34 67.0512 40.3992 68.5862 36.6085C69.7319 33.7442 71.0656 30.9918 73.084 28.6378C74.8563 26.5612 77.4924 23.3388 80.3208 22.6631C84.0444 21.7545 87.4546 21.8396 91.2453 21.7769C91.4959 21.7679 91.5139 22.1215 91.2901 22.2021C87.4815 23.4776 85.669 26.2747 82.657 28.508C79.6361 30.7367 77.1522 32.97 75.2188 36.2191C73.8673 38.4837 73.2675 41.6836 71.455 43.6125C69.3471 45.8458 66.9796 47.6538 64.4241 49.3411C63.7438 49.802 63.0143 48.7682 63.5917 48.2401Z" fill="#DDA1C0"/>
<path d="M57.3309 51.3594C48.7649 46.4499 40.2974 36.8456 34.8553 28.7183C28.9299 19.8972 32.4475 10.5614 38.5699 3.29782C38.7176 3.11881 39.0577 3.3739 38.91 3.55739C29.2476 15.6858 36.5022 25.0529 45.3233 33.7218C45.2964 33.6904 45.283 33.6591 45.2741 33.6278C41.5818 25.2677 48.0757 16.554 44.0523 8.19395C43.9359 7.93885 44.2627 7.76879 44.4238 7.99256C48.492 13.5555 49.02 19.4944 50.8147 26.0017C51.1996 27.3846 51.6471 28.7227 52.1125 30.0474C52.2557 25.3975 51.0698 21.9961 49.3467 17.0553C47.664 12.2084 49.5884 6.84236 46.29 2.36246C46.1513 2.15659 46.4601 1.95072 46.6256 2.11184C52.023 7.10642 53.9251 15.6187 56.6551 22.3094C59.4075 28.9913 56.5522 36.1564 56.9773 43.2186C57.3219 44.3241 57.6129 45.4519 57.868 46.62C58.5124 47.4569 59.0942 48.3072 59.6044 49.1575C60.4727 50.621 58.7227 52.1605 57.3309 51.3594Z" fill="#DDA1C0"/>
<path d="M25.2551 67.4978C25.0492 67.4217 25.0268 67.0861 25.2595 67.0503C27.6091 66.5759 29.5962 65.4123 31.4849 64.0517C29.0905 64.0159 26.714 63.6445 24.53 62.9553C24.3242 62.8792 24.2973 62.5525 24.53 62.4988C30.178 61.2322 33.096 56.354 38.2025 54.6265C40.1404 53.9731 41.9887 53.4718 43.8236 53.0959C43.2418 52.7021 42.6824 52.3038 42.1543 51.8831C37.0568 47.8686 30.3884 36.3891 22.6862 38.6045C22.44 38.6806 22.3192 38.3315 22.5206 38.2196C24.3465 37.2126 26.1188 36.6666 27.8374 36.5234C27.1482 36.3175 26.4321 36.1161 25.6131 36.0132C25.3625 35.9953 25.2685 35.6149 25.546 35.5657C32.2323 34.4781 39.9703 38.2822 42.02 45.0625C43.2418 46.2754 44.4949 47.4658 45.8644 48.5086C48.581 50.5807 51.942 50.5046 54.6004 52.6618C55.0793 53.0511 55.0658 53.7896 54.7839 54.3222C54.9003 55.2307 54.4796 56.2556 53.4995 56.4838C48.8406 57.6474 45.0588 60.5654 40.749 62.3332C39.1736 64.3203 37.115 66.106 35.1323 67.3859C32.5187 69.0956 27.9985 68.3929 25.2551 67.4978Z" fill="#DDA1C0"/>
<path d="M61.7747 90.8952C65.4625 87.2343 61.5957 76.5738 60.5529 72.273C60.2128 70.8542 59.528 68.9522 58.9641 66.983C58.0511 68.4241 56.8338 69.7399 55.6971 70.908C51.441 75.2983 47.1714 79.7917 43.6179 84.7818C43.4612 85.0055 43.1211 84.7997 43.2554 84.558C45.5513 80.3198 46.3479 75.4236 48.2813 71.0064C39.4513 74.4569 29.2697 78.2253 29.5337 84.4193C29.5382 84.6475 29.1847 84.746 29.0862 84.5401C26.0966 77.6435 32.8545 73.4231 38.1534 70.6663C42.3693 68.4867 46.8402 66.8129 51.1276 64.7855C52.5419 64.1277 55.16 62.2748 57.3172 61.3484C57.4022 61.2186 57.4827 61.1247 57.5901 60.9904C57.7557 60.7756 57.9571 60.6279 58.172 60.5294C58.266 59.9253 58.4226 59.3658 58.6867 58.869C59.2282 57.88 60.544 58.1127 61.1079 58.9183C62.5713 61.0217 62.5176 64.6021 63.1083 67.0859C64.0348 70.9348 65.0373 74.7568 65.7847 78.6459C66.6216 83.0095 67.4227 89.6197 62.6116 92.014C61.9 92.3587 61.2063 91.4636 61.7747 90.8952Z" fill="#DDA1C0"/>
<path d="M31.0819 102.106C29.341 100.607 29.5423 98.5887 30.6119 97.0761C30.4105 96.4853 30.2226 95.8901 30.0884 95.3396C29.4797 92.9542 30.2047 90.7925 30.0749 88.4429C30.0615 88.1297 30.5896 88.1923 30.4956 88.5011C29.8959 90.4121 30.9789 92.9765 31.8471 94.6369C32.0262 94.9547 32.241 95.2321 32.4603 95.5096C33.615 94.9457 34.9934 94.8115 36.2957 95.5947C36.6314 95.7916 37.07 95.9617 36.3226 95.8587C36.8014 95.8542 37.2848 95.9214 37.7592 96.0333C37.7726 96.0333 37.7905 96.0512 37.8084 96.0512C37.9606 95.8229 38.2291 95.4514 38.3231 95.3127C38.9228 94.3729 39.4196 93.3704 39.8985 92.3589C40.0909 91.9338 41.2993 89.978 41.0307 89.5439C40.7488 89.0695 41.7915 89.2575 41.3664 89.5886C40.9144 89.9735 41.7423 93.075 41.8005 93.6479C41.9885 95.3799 41.7871 97.0402 41.8766 98.7275C41.9527 100.419 41.1829 102.339 39.8403 103.395C36.7925 105.799 33.6418 104.326 31.0819 102.106Z" fill="#DDA1C0"/>
<path d="M37.7988 96.0381C37.7899 96.0381 37.7634 96.0337 37.7501 96.0337C37.7191 96.0115 37.7191 96.0115 37.7988 96.0381Z" fill="#DDA1C0"/>
<path d="M61.7479 34.4514C62.1417 33.7309 62.3118 32.9163 62.3924 32.075C62.3432 31.0859 62.3342 30.0431 62.3879 28.9735C62.3924 28.8795 62.3879 28.781 62.3834 28.6826C62.2805 26.9461 62.2357 25.5722 62.361 24.0147C61.9583 22.6766 61.4257 21.3518 61.0095 20.0763C60.1905 17.597 58.7852 16.1156 59.4162 13.3677C59.443 13.2513 59.537 13.1887 59.5683 13.0768C59.5728 13.0678 59.5594 13.0544 59.5594 13.0544C59.3714 11.6357 59.9488 10.3423 61.4078 9.92162C63.8245 9.2503 65.7042 10.4766 67.1095 12.3607C69.75 13.8287 70.833 17.9416 70.654 20.8416C70.5734 22.0142 70.3676 23.5224 69.9827 24.9098C69.7366 26.4494 69.2129 27.9084 68.1209 29.2599C66.7067 31.0009 65.006 32.2137 63.3635 33.5876C63.2203 33.789 63.0726 33.9591 62.9339 34.174C62.8488 34.2903 62.7414 34.2724 62.6475 34.2097C62.4505 34.3798 62.2626 34.532 62.0791 34.711C61.8956 34.8766 61.627 34.6573 61.7479 34.4514Z" fill="#DDA1C0"/>
<path d="M67.5394 48.7636C67.2933 48.7368 67.2351 48.3832 67.4902 48.3072C67.9422 48.1684 68.4077 48.0834 68.8731 47.967C70.9139 46.5931 73.1068 45.5906 75.4117 44.6821C77.2421 43.9615 79.1039 42.9814 80.9657 42.0774C76.62 43.5095 72.4221 45.3847 68.4927 47.4166C68.242 47.5374 68.0541 47.2375 68.2107 47.0406C68.4613 46.7408 68.712 46.4499 68.976 46.1366C67.7811 47.3091 66.5638 48.4146 65.2838 49.4394C65.0779 49.6095 64.778 49.3096 64.9884 49.1306C73.4648 42.1848 74.2883 29.6312 84.3491 24.5068C90.2656 21.4859 99.5297 18.5903 103.947 25.2811C104.502 26.1404 104.596 26.9728 104.471 27.756C104.614 27.8723 104.708 28.0558 104.829 28.1856C107.183 28.0066 109.868 29.1926 110.718 31.2782C113.797 38.7074 108.503 43.9347 102.179 46.7631C102.242 47.3002 102.125 47.8641 101.727 48.4056C94.0428 58.8916 77.4122 49.9362 67.5394 48.7636Z" fill="#F6E7EF"/>
<path d="M75.1966 94.8159C71.5491 90.8507 71.0031 86.9168 71.0389 81.8551C68.5416 73.9202 67.2706 64.8977 64.2363 58.462C64.1288 58.2159 64.4153 57.9787 64.6167 58.1801C65.5386 59.1334 66.389 60.1269 67.2393 61.1204C66.3442 59.8942 65.5207 58.6411 64.5675 57.4327C64.4108 57.2179 64.6883 56.9225 64.8897 57.1328C71.2806 64.1324 78.8978 69.5253 84.0087 77.6885C85.8302 80.6109 86.8372 84.0794 88.3857 87.154C89.6746 89.7184 91.8541 91.5623 93.2102 94.0327C93.3444 94.2476 93.4429 94.4668 93.5324 94.6996C93.6667 94.9994 93.8457 95.2635 93.9621 95.5857C94.065 95.9124 93.9621 96.2705 93.7965 96.5927C93.5951 98.1054 92.4672 99.4077 90.4041 99.3988C90.2653 99.4032 90.1579 99.3764 90.0192 99.3675C89.7865 99.5599 89.5045 99.6986 89.1331 99.7568C83.315 100.549 79.1976 99.1481 75.1966 94.8159Z" fill="#F6E7EF"/>
<path d="M43.3091 104.716C42.8526 103.579 42.8168 102.326 42.9332 101.032C42.7721 100.97 42.6065 100.885 42.4588 100.8C41.9665 101.587 41.4384 102.375 40.7716 103.109C38.8695 105.239 36.4931 105.141 34.676 103.95C34.3538 104.071 34.0181 104.111 33.7093 103.923C28.4015 100.728 27.5512 93.2003 27.2692 87.5523C26.9693 81.7834 31.0196 78.2479 35.6024 75.5537C40.4135 71.1543 46.3703 70.1295 52.5509 67.489C54.1218 66.2045 55.6344 64.8753 56.995 63.4118C57.165 63.2194 57.4604 63.4745 57.3351 63.6759C55.9567 65.9852 54.7573 68.308 53.6205 70.6576C55.545 68.6347 57.2143 66.4954 58.4898 64.1234C58.633 63.4253 58.7538 62.7226 58.8344 61.9931C58.8657 61.7156 59.2551 61.7246 59.264 62.0021C59.2596 62.3109 59.2506 62.6107 59.2506 62.9151C59.3759 62.8882 59.5326 62.9598 59.5057 63.1254C59.4162 63.5013 59.3222 63.846 59.2327 64.2085C59.2282 64.3875 59.2327 64.5665 59.2237 64.7455C59.6355 66.3791 59.8951 67.9902 60.0338 69.6014C63.6857 77.7108 70.1975 82.7501 67.1363 92.3276C65.4133 97.7428 58.6643 107.625 52.0451 108.457C48.8139 111.72 42.969 109.191 43.3091 104.716Z" fill="#F6E7EF"/>
<path d="M26.4905 71.3288C17.1503 70.0399 10.643 65.0991 2.3769 61.0936C-0.706672 59.5943 -0.075659 54.9488 2.47981 53.3958C3.11532 52.4649 3.75087 51.5833 4.40428 50.7777C3.98359 50.6658 3.56288 50.4957 3.13771 50.2362C2.86919 50.075 2.60514 49.9139 2.32766 49.7528C-0.317317 48.1416 -0.858859 44.1854 1.48626 42.0416C3.10637 40.5513 5.12482 39.3967 7.33568 38.515C10.4685 36.8591 14.1517 35.9193 17.1816 35.9506C24.9286 36.0222 31.0331 39.3251 37.603 43.0218C37.8357 43.1605 37.6209 43.5051 37.3703 43.3843C35.8486 42.6369 34.2911 42.0506 32.7158 41.621C33.132 41.885 33.5438 42.1625 33.8794 42.4086C34.0853 42.5474 33.951 42.9233 33.6959 42.8249C33.5482 42.7712 33.414 42.7264 33.2618 42.6772C37.8849 46.5663 42.1097 51.0462 48.0531 51.9905C48.3171 52.0263 48.2276 52.4023 47.9905 52.4023C44.1684 52.4918 40.9819 51.7086 37.8805 50.5629C37.8805 50.5629 37.8894 50.5674 37.9028 50.5763C41.3624 51.7936 44.9293 52.8095 48.7737 53.0646C49.0556 53.0781 49.0556 53.5077 48.7781 53.4943C46.0436 53.3376 43.1122 52.8946 40.1047 52.3888C41.774 53.5972 43.7478 54.5326 46.612 54.8682C46.9164 54.9219 46.9164 55.3202 46.612 55.3381C43.9178 55.544 41.246 55.3963 38.5473 55.4813C38.5518 55.5798 38.4936 55.6872 38.3996 55.732C37.0033 56.2512 35.6427 56.8374 34.3001 57.455C34.9177 57.5221 35.5443 57.5624 36.1753 57.549C39.4111 57.4327 42.517 56.9717 45.784 57.0164C46.0391 57.0209 46.0481 57.361 45.8378 57.4326C39.6661 59.742 33.9734 72.3895 26.4905 71.3288Z" fill="#F6E7EF"/>
<path d="M56.0063 44.2434C55.3082 42.0594 55.5856 39.9962 56.1629 37.9555C55.5677 34.5183 55.1201 31.0409 54.4175 27.6575C53.7954 24.6008 54.9277 19.0154 53.9655 15.077C53.8268 16.2317 53.5493 17.3998 53.4285 18.3978C52.972 21.9155 53.0346 25.4511 51.8397 28.839C51.786 29.0046 51.4861 29.0852 51.4056 28.8838C50.0272 25.469 47.7939 22.9046 44.9923 20.5729C44.6656 20.3044 44.4373 20.0224 44.1464 19.736C43.8779 25.0841 44.7999 30.5173 46.8138 35.5656C47.0331 35.9325 47.23 36.2995 47.409 36.577C47.494 36.7023 47.4269 36.8142 47.3284 36.8724C47.8923 38.1479 48.5189 39.3965 49.2082 40.6183C49.3245 40.8063 49.0738 41.0837 48.8903 40.9361C45.4801 38.2284 42.1057 34.6078 39.3891 30.5844C39.4204 30.6157 39.4293 30.665 39.4517 30.7187C39.7023 31.2826 38.9863 31.663 38.6238 31.1797C35.3791 26.6237 33.4323 21.6918 32.7386 16.1422C32.0359 10.6553 33.562 6.94967 37.9524 3.75422C38.1985 3.5752 38.4403 3.49912 38.6819 3.43199C39.6307 2.47873 40.7003 1.54337 41.9893 0.684088C44.0301 -0.680918 45.9992 0.164936 47.136 1.74476C48.2996 2.06252 49.3737 2.75621 50.233 3.79898C50.9401 2.57719 52.2783 1.72687 54.0774 2.2147C62.2585 4.42556 64.3172 12.8707 65.7135 20.273C65.794 20.734 65.8925 21.2218 65.9955 21.6962C66.8368 19.5122 67.5171 17.2656 67.6513 14.9025C67.6782 14.634 68.081 14.6385 68.0855 14.9204C68.1436 19.0826 69.0835 22.9896 68.6986 27.1965C68.5554 28.7763 67.8259 30.665 66.7831 32.294C66.7563 32.4551 66.7339 32.6118 66.6936 32.7639C65.2973 37.5213 59.7254 38.7521 57.8592 42.8471C57.8189 43.0171 57.7652 43.1783 57.7249 43.3438C57.7115 43.3841 57.6801 43.3752 57.6757 43.3841C57.5638 43.6795 57.4295 43.948 57.3534 44.2658C57.2191 44.9998 56.2032 44.8476 56.0063 44.2434Z" fill="#F6E7EF"/>
<path d="M54.0321 52.5811C50.8008 51.61 47.6546 50.2673 45.0365 48.0968C43.7923 47.0495 42.5929 45.9709 41.85 44.5119C40.9683 42.762 40.664 40.7973 39.7779 39.0877C39.7689 39.0653 39.8002 39.0653 39.7958 39.0474C39.76 38.94 39.7779 38.846 39.8763 38.7968C39.9211 38.7744 39.9659 38.7431 40.033 38.7744C41.1295 39.1996 42.4408 39.1593 43.582 39.5711C45.0589 40.1171 46.5089 40.8421 47.7307 41.8222C48.7422 42.6278 49.691 43.5094 50.6353 44.3866C52.8685 46.0381 55.2807 47.8148 56.4622 50.048C56.9322 50.9476 56.3593 51.8427 55.4911 52.0441C55.2047 52.4827 54.7124 52.787 54.0321 52.5811Z" fill="#C86D9E"/>
<path d="M40.4942 67.0592C40.6598 66.992 40.8433 66.9204 41.0089 66.8443C40.7762 66.625 40.6195 66.3431 40.727 65.9537C41.5146 63.179 42.8483 61.5946 45.18 59.9522C45.3187 59.8582 45.4619 59.7866 45.5962 59.6971C45.7976 59.5225 45.9677 59.3391 46.187 59.2137C48.0667 58.0904 50.0806 57.2177 52.2198 56.8462C52.6226 56.6985 53.0657 56.5867 53.4282 56.3763C53.6565 56.242 53.8131 56.5732 53.652 56.6985C53.8758 56.6896 54.1085 56.6359 54.3278 56.6359C54.8067 56.6359 54.9454 57.2803 54.556 57.5175C54.4441 57.5712 54.3681 57.6563 54.2696 57.7234C54.3904 57.8801 54.5112 58.0591 54.641 58.2023C54.9364 58.2963 55.1826 58.5066 55.3168 58.802C55.6033 59.0571 55.8718 59.3211 56.2208 59.4957C56.4804 59.6389 56.5521 59.9164 56.4984 60.1715C56.6863 59.9969 56.8967 59.8806 57.0667 59.6702C57.2234 59.4599 57.559 59.7732 57.3621 59.9656C55.2363 62.2257 53.5714 64.3784 50.9891 66.173C48.1606 68.1333 44.6161 68.4331 41.3401 69.2073C40.1004 69.5117 39.2366 67.6186 40.4942 67.0592Z" fill="#C86D9E"/>
<path d="M58.7987 47.9583C58.3915 47.9538 57.9887 47.6361 58.1006 47.1169C58.1633 46.835 58.302 46.5799 58.3781 46.3024C58.3826 46.28 58.3602 46.2621 58.3512 46.2308C58.5929 40.2472 63.3189 37.5574 67.2215 33.8383C67.3558 33.619 67.5214 33.4355 67.6467 33.2207C67.7586 32.9477 68.1882 33.2341 67.9644 33.4758C67.9152 33.543 67.866 33.6056 67.8167 33.6638C67.8973 33.6593 67.9823 33.6459 68.0092 33.7533C70.3632 39.2581 67.5393 44.8389 63.216 48.3924C62.9967 48.567 62.773 48.6386 62.5447 48.6923C61.3587 49.9364 59.4432 49.2786 58.7987 47.9583Z" fill="#C86D9E"/>
<path d="M64.375 57.6204C63.8693 57.3116 63.9991 56.7969 64.3482 56.5329C63.9857 55.2439 64.5093 53.7671 65.6371 53.1674C65.6908 52.9346 65.8295 52.7198 65.9772 52.5274C64.6614 52.778 63.2428 50.9431 64.5138 49.7258C72.8649 41.7282 86.2957 41.5223 94.0874 33.104C94.2799 32.8937 94.6065 33.2428 94.3917 33.4039C90.3728 36.4293 86.5866 39.1503 82.1067 41.4775C77.0226 44.1404 71.9609 46.7586 67.9778 50.8939C68.6267 51.1624 69.2667 51.4309 69.9111 51.7039C75.7605 51.422 83.2345 52.2902 84.8277 58.2828C85.0873 58.5379 85.2977 58.7974 85.4454 59.1376C85.4946 59.245 85.4766 59.33 85.4095 59.4195C85.3334 59.509 85.2037 59.527 85.1231 59.603C85.0336 59.8626 84.8053 60.0327 84.5681 59.9611C83.4045 60.6324 81.78 60.6816 80.2449 60.6592C78.5487 60.9367 76.8391 61.0889 74.8833 60.9367C71.1016 60.6458 67.5973 59.5941 64.375 57.6204Z" fill="#C86D9E"/>
<path d="M65.6414 75.5984C65.5788 75.6656 65.4937 75.6969 65.4087 75.6745C62.079 74.5825 60.8214 72.761 59.7249 69.4761C58.606 66.0792 58.9372 63.1791 60.6021 60.0687C60.7274 59.836 60.884 59.7688 61.0675 59.7554C61.6762 58.6142 63.6946 58.4486 64.1287 60.0553C64.8224 62.7137 65.7846 65.305 66.5723 67.9455C67.3152 70.4651 66.7916 73.0788 65.9726 75.5179C65.9144 75.6656 65.7623 75.679 65.6414 75.5984Z" fill="#C86D9E"/>
<path d="M57.6259 48.3028C56.5429 47.4614 55.697 46.5171 54.9406 45.5325C54.8467 45.5772 54.7527 45.6354 54.6408 45.6444C50.7024 46.5842 46.0256 40.6364 44.1728 37.7184C41.0355 32.7865 40.1404 28.1141 39.2542 22.4751C39.205 22.2066 39.6123 22.0947 39.6615 22.3722C40.8162 28.4095 45.6452 31.3096 49.682 35.069C47.0683 29.9356 45.2782 24.3861 43.676 18.7874C43.2598 17.5745 42.8838 16.3348 42.5661 15.0683C42.4855 14.7774 42.9376 14.6565 43.0137 14.943C43.1792 15.5382 43.3941 16.1066 43.582 16.6839C43.5149 16.4064 43.4074 16.1513 43.3537 15.8783C43.2911 15.6277 43.6626 15.4577 43.7834 15.7038C45.7078 19.6422 50.7472 24.6457 53.589 29.788C53.4951 26.5254 53.1549 23.2449 51.7452 19.9152C49.6775 15.028 48.5363 11.7878 49.9416 6.53364C50.0087 6.26511 50.4115 6.38595 50.3399 6.65895C48.5676 14.7639 56.0192 17.4268 57.787 24.037C59.5817 30.6965 57.7691 35.9417 56.7621 42.2699C56.8606 42.525 56.9859 42.7622 57.0709 43.0218C57.1246 43.1784 57.0799 43.3082 57.0397 43.4335C57.6796 44.4718 58.3241 45.4967 59.0715 46.4903C59.792 47.4435 58.7672 49.18 57.6259 48.3028Z" fill="#DB9FBF"/>
<path d="M32.4741 61.1785C32.1698 61.3083 32.0355 60.8249 32.322 60.7757C36.0813 60.2208 39.3977 57.7772 43.0049 56.6091C42.7184 56.5688 42.4275 56.5509 42.1411 56.524C38.7532 56.3003 35.6562 53.6866 32.2504 53.1899C31.9774 53.1496 31.9774 52.7602 32.2504 52.7602C35.504 52.7736 38.7397 52.0486 41.9844 51.9054C41.2012 51.5608 40.3867 51.1535 39.4916 50.7105C33.9466 47.9133 28.8088 45.5369 22.5118 45.0356C22.2165 45.0177 22.2254 44.5926 22.5297 44.5702C31.7804 43.8854 42.4007 47.0809 50.3624 51.6861C51.2173 52.1918 50.7339 53.3644 49.8701 53.427C49.7985 53.427 49.7627 53.4136 49.7 53.4181C49.9238 53.5389 50.1655 53.6866 50.434 53.8925C51.168 54.4072 51.1814 55.4186 50.4072 55.9064C49.2033 56.6583 47.8204 56.8552 46.4016 56.8508C46.4375 57.2043 46.3301 57.5892 45.981 57.7637C41.8725 59.8582 36.7303 59.3883 32.4741 61.1785Z" fill="#DB9FBF"/>
<path d="M82.0704 33.9589C82.3031 33.6948 82.5 33.3726 82.697 33.0728C82.5448 33.4218 82.4329 33.7709 82.4284 34.1155C82.424 34.4915 81.7884 34.2632 82.0704 33.9589Z" fill="#DB9FBF"/>
<path d="M82.6926 33.0729C82.8045 32.8446 82.9746 32.6343 83.1267 32.424C82.997 32.6477 82.8448 32.8581 82.6926 33.0729Z" fill="#DB9FBF"/>
<path d="M89.4998 24.2158C89.1597 24.2427 88.8195 24.2695 88.4839 24.3098C86.3133 24.6499 83.3014 25.6524 81.9766 27.5366C81.7976 27.8006 81.4307 27.4873 81.6544 27.277C83.4894 25.5003 84.6619 23.4952 86.7922 21.9602C88.5958 20.6623 90.1891 20.0357 92.0508 20.2192C94.5571 19.3913 97.2468 19.0646 99.7709 19.7538C101.543 20.2237 103.029 21.347 103.996 22.9C104.873 24.3187 104.528 25.2272 103.844 26.0731C103.915 28.5077 100.201 29.5818 99.31 26.7534C98.03 22.7523 93.2055 25.7374 90.8067 26.919C89.1194 27.738 84.7962 30.0607 83.1268 32.4192C83.9414 31.0005 84.5993 29.3715 85.5704 28.1318C86.7296 26.6504 88.0766 25.3794 89.4998 24.2158Z" fill="#DB9FBF"/>
<path d="M82.3304 35.5385C83.1494 34.8762 83.9685 34.2093 84.8054 33.5291C84.1341 34.2809 83.2748 34.9344 82.3304 35.5385Z" fill="#DB9FBF"/>
<path d="M86.1346 32.4596C85.6826 32.8221 85.2574 33.1756 84.8054 33.5292C85.1858 33.1085 85.5438 32.6699 85.8034 32.1955C85.9466 31.9136 86.3718 32.2761 86.1346 32.4596Z" fill="#DB9FBF"/>
<path d="M63.7754 49.6493C62.3119 45.89 68.1613 42.3007 70.7839 40.8328C73.7556 39.141 78.7591 37.785 82.3305 35.5383C80.3165 37.1719 78.2937 38.774 75.9888 40.233C73.7019 41.6831 71.4642 43.1868 69.4995 45.0665C67.8928 46.6195 67.6959 48.9154 66.1116 50.2938C65.2478 51.0501 64.1647 50.616 63.7754 49.6493Z" fill="#DB9FBF"/>
<path d="M72.7124 76.4347C71.7099 72.7828 68.586 71.2074 66.5184 68.3118C64.9251 66.0607 62.034 62.4714 63.0723 59.5624C63.4572 58.5017 64.6029 58.2958 65.4264 58.9761C66.6034 59.9607 67.0286 61.5181 67.8521 62.7981C68.9128 64.4451 70.3762 65.8056 71.504 67.3944C73.2226 69.7932 73.7417 73.651 73.1555 76.4482C73.1152 76.6809 72.7661 76.654 72.7124 76.4347Z" fill="#DB9FBF"/>
<path d="M41.2192 103.655C41.1655 103.391 41.1654 103.154 41.1968 102.916C40.5434 103.266 39.787 103.409 38.883 103.198C38.1177 103.042 37.4508 102.169 37.5314 101.381C37.6657 100.204 38.1043 99.5375 39.0575 98.8125C40.3062 97.8726 41.2729 96.5031 42.1993 95.2634C43.072 94.0954 43.891 92.8825 44.7458 91.701C45.5469 90.5642 46.8805 89.3693 47.4534 88.1072C47.5787 87.8342 48.0352 88.1654 47.7846 88.3802C45.5245 90.2778 45.1486 97.4116 42.978 101.077C43.7522 100.979 44.616 101.247 45.1978 102.066C45.3723 102.312 45.5782 102.46 45.7751 102.639C48.1695 102.603 50.3177 102.397 52.6405 100.916C52.6852 100.885 52.6807 100.943 52.7255 100.934C53.3655 100.258 54.0234 99.5732 54.7439 98.987C57.8633 96.4763 62.8847 95.6259 65.2611 92.162C65.4223 91.9337 65.7803 92.144 65.6237 92.3812C62.2045 97.8099 61.3586 103.543 55.0572 106.456C54.6052 106.658 54.1621 106.797 53.7145 106.944C52.5464 108.166 51.0785 109.048 49.3241 109.433C45.0769 110.301 42.0024 107.763 41.2192 103.655Z" fill="#DB9FBF"/>
<path d="M83.1715 49.7886C83.252 49.999 83.0283 50.2138 82.8403 50.0348C82.7598 49.9453 82.6658 49.8557 82.5763 49.7617C82.5002 49.6722 82.5494 49.6007 82.5807 49.5201C81.4305 49.0547 80.3386 48.8577 79.345 49.2202C79.072 49.3008 78.9646 48.8398 79.2331 48.7906C80.3968 48.6295 81.3903 48.5758 82.3614 48.5713C80.2625 47.9537 78.1769 47.6315 76.1585 48.0924C75.8497 48.1596 75.7915 47.7031 76.1048 47.6717C80.7861 47.1615 85.4271 47.5599 90.0681 47.9C89.5445 47.6494 89.0433 47.4345 88.5868 47.251C88.4257 47.1839 88.3495 46.9288 88.542 46.8303C88.5688 46.8124 88.5957 46.7901 88.6315 46.7811C87.083 46.714 85.5927 46.7274 84.1874 46.9064C83.9457 46.9378 83.7354 46.5887 84.0084 46.4723C84.7826 46.1635 85.5748 45.8995 86.367 45.6712C83.7623 45.4251 81.1172 45.3266 78.5976 45.9979C78.3335 46.0651 78.1903 45.7025 78.4141 45.5772C83.2431 42.8562 89.1954 42.8159 94.5749 41.4106C94.3914 41.3345 94.3287 41.075 94.5704 41.0257C95.273 40.887 96.0115 40.802 96.741 40.7527C96.8081 40.7214 96.8797 40.7035 96.9603 40.6811C100.411 39.419 103.696 39.7144 105.021 35.5657C105.696 33.4354 106.045 30.9247 108.449 31.5199C108.355 31.1261 108.203 30.7188 107.956 30.3339C107.187 29.1748 108.887 28.0694 109.814 28.9466C114.177 33.0416 111.17 39.0162 108.064 42.9188C107.343 43.8273 106.529 44.5479 105.674 45.1252C104.591 46.5081 103.964 48.3788 102.68 49.6096C101.691 50.5673 100.456 50.8895 99.1264 50.8806C98.8579 51.0507 98.6028 51.2028 98.3298 51.3461C98.9787 51.7354 99.2025 52.5499 98.8265 53.2391C94.8702 60.7042 88.5241 52.4291 83.1715 49.7886Z" fill="#DB9FBF"/>
<path d="M92.9325 74.9983C92.4536 74.139 92.5655 72.9933 92.1583 72.0579C91.5586 70.6795 90.3904 69.5741 89.2224 68.6835C87.3382 67.2469 85.1363 66.5934 83.0284 65.6088C80.7369 64.5347 78.2218 62.2388 75.5679 62.2299C75.2904 62.2299 75.3261 61.76 75.5902 61.8002C77.7652 62.1091 80.267 61.4556 82.4868 61.5049C84.8946 61.5496 87.1144 62.7401 89.1686 63.8724C93.1517 66.0429 96.0519 69.5338 96.4502 74.1166C96.5084 74.7611 96.025 75.4145 95.4879 75.7099C94.566 76.2425 93.5008 76.0231 92.9325 74.9983Z" fill="#DB9FBF"/>
<path d="M61.8596 96.9371C66.532 87.6908 59.4831 79.8007 56.5875 76.283C55.594 75.097 54.8555 73.6694 54.3588 72.1522C53.7859 72.5505 53.2355 72.9488 52.7745 73.3964C51.6556 74.4526 50.7247 75.7818 49.7133 76.9588C48.5004 78.3641 46.9609 79.4606 45.7883 80.8569C45.6138 81.0672 45.2782 80.7405 45.493 80.5481C48.7959 77.7017 49.5074 65.0452 54.587 63.2864C56.328 59.5673 61.6448 61.0889 60.8571 65.269C59.3892 73.0115 64.4911 80.3243 66.5319 87.6864C66.6125 87.9594 61.7254 97.1877 61.8596 96.9371Z" fill="#DB9FBF"/>
<path d="M61.8865 25.1513C64.2406 19.5973 63.6364 13.7076 58.5389 10.163C55.979 8.3997 53.3384 6.21572 51.6512 3.59312C50.774 2.21469 52.788 0.818347 53.8845 1.93273C57.3216 5.44594 61.9626 5.82636 64.4285 10.4942C67.1004 15.5336 64.0526 20.5997 62.2893 25.2676C62.1998 25.5361 61.7791 25.4064 61.8865 25.1513Z" fill="#DB9FBF"/>
<path d="M77.7118 76.9992C77.6133 76.9545 77.5104 76.9052 77.403 76.8605C77.0897 76.7262 76.7809 76.3861 76.9331 76.0057C77.0628 75.67 77.1926 75.4418 77.4119 75.1419C77.4208 75.1375 77.4209 75.1285 77.4343 75.1151C76.0917 72.5372 74.3373 70.2682 72.5426 67.9857C72.3592 67.7799 72.6635 67.4755 72.8425 67.6948C74.6416 69.9639 76.3781 72.2463 77.7207 74.7928C78.5084 74.3856 80.0032 75.3075 79.0097 76.4174C78.9067 76.5203 78.7948 76.6546 78.6964 76.7576C78.4815 76.9992 78.0071 77.1201 77.7118 76.9992Z" fill="#6E3027"/>
<path d="M53.7101 31.9939C53.4281 33.3455 53.2446 34.6612 53.173 35.9412C53.1685 34.5941 53.3028 33.2649 53.7101 31.9939Z" fill="#6E3027"/>
<path d="M54.4752 54.4207C53.052 54.094 51.7542 53.548 50.4877 52.805C48.8855 51.8742 47.7039 50.2675 46.0794 49.4037C45.8153 49.2695 46.1151 48.8532 46.3434 49.077C48.2096 50.8448 52.063 51.5564 54.529 51.2611C54.5469 51.2566 54.5603 51.27 54.5871 51.2655C52.9133 49.7931 51.4812 48.1506 50.161 46.3336C48.5229 44.078 46.2449 39.9561 43.1524 39.5131C42.7765 39.4549 43.0092 38.9268 43.2733 39.1147C45.4215 40.6095 47.507 41.5494 49.4314 43.4291C51.5572 45.5325 53.5085 48.079 56.3102 49.3142C53.9829 44.7627 52.8865 40.4976 53.1684 35.9417C53.1998 40.7617 55.5852 45.81 57.993 49.623C58.1943 49.9363 58.0735 50.2183 57.8452 50.4018C58.4494 50.7598 58.8343 51.5564 58.4136 52.2949C58.3733 52.3844 58.3286 52.4694 58.2794 52.5455C57.8408 53.369 57.0352 53.3555 56.431 52.9751C56.3863 53.8568 55.7194 54.6982 54.4752 54.4207Z" fill="#6E3027"/>
<path d="M53.0255 30.0024C52.2647 29.5236 52.2422 28.7985 52.5555 28.2436C52.4929 28.2346 52.4392 28.2033 52.3631 28.1854C52.0767 28.1317 52.2691 27.6215 52.5466 27.8005C52.6271 27.8408 52.7033 27.8721 52.7838 27.9169C53.3343 27.3261 54.3234 27.1158 54.9723 28.1227C55.1424 28.3823 55.2095 28.6374 55.29 28.8522C55.5944 29.0134 55.9077 29.2416 56.2165 29.5773C56.6372 30.0561 56.4402 30.8304 55.8092 30.996C54.9947 31.2153 54.5874 31.1258 54.207 30.8886C54.0414 31.2555 53.84 31.6136 53.7102 31.9895C53.8042 31.5778 53.9251 31.1616 54.028 30.7588C53.7595 30.544 53.473 30.2799 53.0255 30.0024Z" fill="#6E3027"/>
<path d="M61.8732 37.1456C61.4973 35.6418 61.0901 34.1202 60.7052 32.5627C61.2199 34.0307 61.6092 35.5613 61.8732 37.1456Z" fill="#6E3027"/>
<path d="M59.5682 49.636C59.5458 49.636 59.5459 49.6763 59.5145 49.6718L59.2505 49.6629C58.9774 49.6674 58.982 49.2377 59.2639 49.2467L59.4295 49.2422C58.9283 47.8324 58.7448 46.3376 58.9686 44.8428C59.152 43.7822 59.4385 42.8066 59.8547 41.8085C60.253 40.8418 61.0138 40.0094 61.3763 39.0248C61.4748 38.6847 61.9626 38.9935 61.7119 39.2396C60.2082 40.7926 60.1769 43.4913 60.8213 45.7648C61.0496 45.4694 61.2465 45.1651 61.5151 44.8831C61.7523 44.6415 62.0342 44.3864 62.3161 44.1313C62.3698 41.8175 62.2669 39.4768 61.8686 37.1451C62.3878 39.2128 62.8353 41.2849 63.0501 43.4062C63.9273 42.5201 64.7105 41.5176 64.5583 40.2556C64.5046 39.9065 65.0417 39.9333 64.9656 40.2645C64.5807 41.7414 64.6031 43.0035 63.9183 44.4267C63.6722 44.919 63.4261 45.3933 63.1799 45.8633C63.171 46.9105 63.0994 47.9891 62.9114 49.1079C62.8622 49.4615 62.5444 49.4839 62.2982 49.3451C62.1729 50.4685 60.2619 51.1666 59.5682 49.636Z" fill="#6E3027"/>
<path d="M59.2865 29.7028C59.2821 29.3671 59.2283 29.018 59.1433 28.6913C58.7808 28.0379 59.0672 27.5143 59.5192 27.2189C59.5192 27.2189 59.5192 27.192 59.5058 27.192C59.3 26.9548 59.6893 26.6684 59.8415 26.9414C59.8594 26.9772 59.9131 27.0041 59.931 27.0488C60.5262 26.8788 61.202 27.0801 61.3005 27.8186C61.3273 28.0782 61.3005 28.2796 61.2691 28.4989C61.4884 28.6868 61.7077 28.8703 61.9091 29.0583C62.1687 29.3089 62.1105 29.8236 61.7659 29.9802C61.3855 30.1682 60.9424 30.2667 60.5665 30.4591C60.4591 30.5083 60.3606 30.4994 60.2666 30.5173C60.4098 31.202 60.5531 31.8913 60.7097 32.5581C60.4725 31.8644 60.2398 31.1618 59.9489 30.5128C59.5864 30.4188 59.3223 30.1414 59.2865 29.7028Z" fill="#6E3027"/>
<path d="M65.1625 60.4443C66.1784 61.2275 67.2122 61.9973 68.2102 62.8118C67.0601 62.1316 65.9994 61.3618 65.1625 60.4443Z" fill="#6E3027"/>
<path d="M76.7545 71.0784C76.7366 71.0381 76.75 71.0023 76.7321 70.9665C76.5665 70.9486 76.3919 70.9531 76.2308 70.9352C76.0473 70.9217 75.9578 70.7382 76.0384 70.5816C76.1905 70.2818 76.3383 69.9685 76.4949 69.6731C74.8077 67.5115 72.6326 65.9809 70.3635 64.4771C69.6116 63.9804 68.9135 63.3852 68.2153 62.8168C69.2626 63.4478 70.3322 64.0162 71.2094 64.5398C73.3308 65.8153 75.2194 67.328 76.7724 69.2793C77.4526 68.2633 79.1443 69.2972 78.5178 70.4921C78.1911 71.0918 77.9404 71.2171 77.2915 71.3111C77.0901 71.329 76.844 71.2842 76.7545 71.0784Z" fill="#6E3027"/>
<path d="M65.4402 61.5722C65.1224 61.2097 64.8136 60.8427 64.5496 60.4534C64.8494 60.8204 65.1403 61.2008 65.4402 61.5722Z" fill="#6E3027"/>
<path d="M73.563 73.7856C73.6078 73.7364 73.666 73.7006 73.7242 73.6648C73.7689 73.6245 73.8763 73.5439 73.939 73.5081C73.8852 73.4634 73.8584 73.4142 73.845 73.3246C73.5049 70.2321 70.39 67.6945 68.479 65.4703C67.4452 64.2574 66.465 62.8879 65.4357 61.5721C66.9215 63.2281 68.8101 64.7139 70.1975 66.1192C72.2204 68.1466 72.9007 70.8094 74.2344 73.2306C74.2433 73.262 74.2343 73.2754 74.2388 73.3067C74.5924 73.0919 75.0176 73.5171 74.9191 73.8885C74.7849 74.3182 74.7535 74.3987 74.4984 74.7613C73.7913 75.7503 72.6053 74.2779 73.563 73.7856Z" fill="#6E3027"/>
<path d="M65.0241 66.8443C65.136 67.0994 64.6616 67.2203 64.6303 66.9428C64.3081 65.1884 62.9073 62.906 61.4841 61.2725C60.6785 62.8612 59.8998 64.7454 60.2399 66.4908C60.2936 66.7593 59.8953 66.8578 59.8237 66.5937C59.1568 64.2754 58.1722 62.3421 57.8634 59.885C57.8008 59.4465 57.8903 58.9989 58.038 58.5782C57.9485 58.5514 57.8635 58.5514 57.8008 58.4932C57.6576 58.8199 57.313 59.0437 56.8699 58.8199C56.8207 58.793 56.7938 58.7617 56.7625 58.7349C56.6774 58.7617 56.579 58.7438 56.485 58.7886C56.4671 58.9542 56.4626 59.1153 56.4268 59.2674C56.7849 59.8985 56.8028 60.6683 56.1001 61.3888C53.3746 64.1233 49.6331 64.8975 45.9051 65.1974C45.6813 65.2153 45.5873 64.8349 45.7977 64.7588C48.2099 63.7563 50.5864 62.5211 52.2155 60.5071C49.3915 60.167 46.0662 60.0775 43.9449 61.6305C43.7256 61.7916 43.4749 61.3843 43.7345 61.268C45.3412 60.4579 46.6928 59.0839 48.3039 58.2068C50.0046 57.2983 51.8664 56.6896 53.7058 56.166C53.8982 56.1123 54.0369 56.1615 54.207 56.1481C53.9251 54.7204 54.3145 53.3912 55.5049 52.0844C55.7332 51.8338 56.0151 51.8606 56.2523 51.9904C56.2926 51.4265 56.5611 51.0416 56.9281 50.7999C56.9057 50.7641 56.8565 50.7776 56.8654 50.7283C56.8699 50.4867 57.125 50.4956 57.2414 50.6523C57.6486 50.4956 58.1185 50.4777 58.5213 50.6299C58.7138 50.4822 58.9286 50.3837 59.2329 50.4106C59.4567 50.4061 59.676 50.3972 59.8953 50.3927C60.0564 50.1823 60.2712 50.0391 60.5129 49.9093C60.401 49.2917 60.9023 48.6786 61.6452 48.8397C62.1196 48.9516 62.5403 49.1306 62.9296 49.3499C62.8356 49.1664 62.8043 48.9516 62.8939 48.7234C64.0082 45.9844 65.3374 43.6885 67.1499 41.3478C68.8461 39.1549 71.0123 36.9709 72.3146 34.4691C71.791 34.0663 71.4061 33.4084 71.0839 32.6208C70.7303 31.8152 71.3658 30.477 72.4175 30.9246C72.9053 31.126 73.2231 31.2781 73.5498 31.6988C73.7109 31.8913 73.7691 32.124 73.8273 32.3791C74.3241 32.6208 74.6597 33.1041 74.9237 33.5427C75.2146 34.0082 74.9014 34.6302 74.4046 34.7555C73.6885 34.9569 73.156 34.854 72.6905 34.6302C71.2853 36.6979 70.2246 39.1146 69.0341 41.3031C67.8392 43.5318 66.5995 45.7561 65.4045 47.976C65.7894 47.3449 66.1922 46.7363 66.6845 46.244C68.2196 44.7357 70.7393 44.2077 72.5966 43.1201C72.7577 43.0351 72.9277 43.0709 73.0709 43.1693C73.4961 42.8739 73.8362 42.5383 74.154 42.1668C73.8855 41.9789 73.6886 41.6969 73.6975 41.2762C73.7244 39.7725 76.0605 39.8173 76.0426 41.321C76.0202 42.2027 75.2325 42.4891 74.5568 42.328C74.1987 42.7889 73.796 43.1917 73.2903 43.5453C73.2903 43.6124 73.2857 43.693 73.2276 43.7735C72.1848 45.1654 70.9809 46.3961 69.786 47.6403C68.3494 49.1709 66.0579 49.69 64.4199 51.0774C64.5005 51.2206 64.6303 51.3191 64.6929 51.4578C66.2951 50.5717 67.96 49.8198 69.6696 49.1575C71.7328 48.3653 74.2166 48.0386 76.1903 47.0316C76.1098 46.7586 76.056 46.4722 75.9755 46.1679C75.8367 45.7159 76.1545 45.416 76.5215 45.3444C76.7632 45.0624 77.1615 44.8655 77.4658 44.8611C77.6627 44.8655 77.797 45.0266 77.8015 45.2146C77.8686 46.1858 77.8507 47.0764 77.6851 48.0297C77.5911 48.5667 76.8974 48.4906 76.6602 48.1505C76.4722 47.873 76.3783 47.6179 76.2932 47.3449C74.1629 47.6448 71.876 48.9516 69.9695 49.8825C68.2599 50.7104 66.6622 51.6995 65.1405 52.8004C65.1002 52.8228 65.0644 52.8005 65.042 52.8273C65.0241 53.069 64.9883 53.2704 64.8988 53.4539C71.6702 51.9725 78.249 50.7283 83.4584 56.4524C83.8702 56.9134 83.2391 57.4997 82.805 57.1014C78.4101 53.1451 72.2967 53.3867 66.6845 53.8432C66.9665 53.9238 67.244 54.0446 67.4364 54.2997C68.0093 54.9889 68.6089 55.4991 69.3787 55.9422C69.5443 56.0317 69.5354 56.2599 69.3832 56.345C68.4836 56.8641 67.602 57.2132 66.5682 57.3878C66.5324 57.3922 66.501 57.3743 66.4652 57.3743C71.2405 59.8314 78.0655 59.0929 83.078 59.7418C83.3734 59.7866 83.3689 60.2476 83.0645 60.2118C79.6319 59.8493 76.1814 59.8627 72.7219 59.6255C69.607 59.4062 66.689 58.4753 63.7307 57.625C63.874 57.889 64.0798 58.1083 64.2275 58.3679C67.5035 60.6325 71.5538 61.353 74.8164 63.6355C75.2058 62.3645 78.0342 63.2685 76.9198 64.7364C76.7318 64.9826 76.517 65.2242 76.3246 65.4793L76.3067 65.457C75.971 66.1328 74.9148 65.7971 74.8343 65.0407C74.7985 64.7185 74.7895 64.4052 74.7626 64.0964C71.7238 61.8587 67.9645 61.0979 64.7646 59.1869C64.8138 59.2227 64.8272 59.2809 64.8585 59.3211C65.0913 59.5897 64.9883 59.8358 64.8093 59.9701C64.9122 60.1088 65.0107 60.261 65.1316 60.4087C64.966 60.2879 64.8093 60.1402 64.6393 60.0238C64.4871 60.0596 64.326 60.0327 64.1962 59.8895C64.2991 60.0641 64.3931 60.2565 64.514 60.4176C64.4155 60.3147 64.308 60.2028 64.2096 60.0954C64.317 60.6056 64.4155 61.1069 64.4737 61.6394C64.693 63.2909 64.4513 65.3137 65.0241 66.8443Z" fill="#6E3027"/>
<path d="M72.9721 32.3609C73.178 32.8621 73.4107 33.2962 73.8269 33.6722C73.9925 33.8378 73.8134 34.1197 73.6031 34.1108C72.9676 34.0884 72.4127 33.9228 71.8443 33.6364C70.1526 32.8084 72.3903 30.9556 72.9721 32.3609Z" fill="#D7AE46"/>
<path d="M60.6962 28.7809C60.7813 29.0808 60.9827 29.2956 61.3094 29.4298C61.3855 29.4746 61.4303 29.5865 61.3407 29.6536C60.8753 30.0295 60.4143 30.128 59.8146 30.1101C57.7828 30.043 59.913 26.9639 60.6962 28.7809Z" fill="#D7AE46"/>
<path d="M53.8353 28.9732C54.3007 29.3133 54.7348 29.6445 55.0928 30.1054C55.2584 30.3203 55.066 30.6022 54.8109 30.5261C54.3231 30.4098 53.8442 30.4098 53.3474 30.4142C52.0361 30.4321 52.7388 28.1721 53.8353 28.9732Z" fill="#D7AE46"/>
<path d="M73.5496 40.4256C74.3596 39.8662 75.4472 40.5912 75.9529 41.3565C76.5213 42.2068 75.4158 43.4197 74.5073 43.0124C74.2209 42.8871 73.9524 42.7573 73.6838 42.5783C73.0259 42.1352 72.8022 40.9269 73.5496 40.4256Z" fill="#D7AE46"/>
<path d="M76.8837 46.4541C77.8325 46.0603 78.8037 47.2642 77.9399 48.0205C76.8569 48.9738 75.6216 46.9688 76.8837 46.4541Z" fill="#D7AE46"/>
<path d="M75.4297 64.3249C75.8682 64.137 76.2844 64.1325 76.7186 63.9803C76.8125 63.9445 76.911 64.0206 76.8842 64.119C76.7499 64.4816 76.8886 64.9336 76.911 65.3006C76.9289 65.6228 76.647 66.0301 76.3471 66.1464C76.2531 66.1867 76.1502 66.2315 76.0562 66.2673C75.6042 66.4418 75.009 66.2628 74.9374 65.7123C74.9105 65.6183 74.9061 65.5378 74.8837 65.4438C74.83 65.0007 74.9955 64.5084 75.4297 64.3249Z" fill="#D7AE46"/>
<path d="M76.7092 70.438C76.9688 70.1784 77.2194 69.9905 77.5417 69.7891C77.7833 69.6503 77.9982 69.9636 77.8818 70.1739C77.7207 70.438 77.6132 70.711 77.5461 71.0064C77.3223 71.7985 76.0468 71.0824 76.7092 70.438Z" fill="#D7AE46"/>
<path d="M77.2998 76.0097C77.7205 75.7904 78.1457 75.6382 78.5843 75.4815C78.8663 75.3786 79.1213 75.6964 78.8797 75.9022C78.5574 76.1842 78.2531 76.4527 77.9711 76.766C77.3938 77.4463 76.5838 76.3946 77.2998 76.0097Z" fill="#D7AE46"/>
<path d="M73.6527 73.6155L74.4807 73.7632C74.5746 73.79 74.6508 73.884 74.5836 73.9735C74.4404 74.1928 74.2972 74.4166 74.1495 74.6314C73.3171 75.9248 72.3056 73.3514 73.6527 73.6155Z" fill="#D7AE46"/>
<path d="M76.1814 33.9722C78.1998 34.0975 78.0074 37.2303 75.98 37.1095C73.9571 36.9797 74.163 33.8424 76.1814 33.9722Z" fill="#D7AE46"/>
<path d="M80.2671 38.8419C80.285 38.8956 80.2985 38.9359 80.3119 38.9806C80.6386 39.8265 79.9225 41.1154 78.8708 40.6321L78.7633 40.5739C76.4272 39.4819 79.5421 36.9578 80.2671 38.8419Z" fill="#D7AE46"/>
<path d="M81.789 42.4128C82.2902 42.5784 82.1694 43.5719 81.686 43.4555C80.8715 43.2721 81.0237 42.1532 81.789 42.4128Z" fill="#D7AE46"/>
<path d="M81.2874 49.4706C81.4843 49.3632 81.6543 49.2334 81.8513 49.126C81.9318 49.0813 82.0303 49.1395 82.0482 49.22C82.0974 49.4662 82.169 49.6944 82.2272 49.9316C82.5673 51.4488 79.8597 50.3075 81.2874 49.4706Z" fill="#D7AE46"/>
<path d="M81.9458 35.928C82.0308 35.9862 82.1069 36.0578 82.1875 36.125C82.4291 35.9952 82.6664 36.2861 82.5276 36.5054C82.1383 37.0648 81.6863 37.0424 81.1895 36.5994C80.46 35.9773 81.6594 35.2164 81.9458 35.928Z" fill="#D7AE46"/>
<path d="M72.0097 64.8084C72.1395 64.7055 72.3051 64.8979 72.1753 65.0053C72.135 65.0546 72.0769 65.0948 72.0321 65.1306C71.9023 65.2425 71.7278 65.0501 71.8531 64.9427C71.9023 64.8979 71.9605 64.8532 72.0097 64.8084Z" fill="#D7AE46"/>
<path d="M71.5175 66.7685C71.8173 66.6924 72.0903 66.6476 72.4081 66.6342C72.6005 66.6297 72.7169 66.8893 72.6095 67.0415C72.4528 67.216 72.3321 67.4129 72.2694 67.6367C71.7324 68.8898 70.2151 67.1086 71.5175 66.7685Z" fill="#D7AE46"/>
<path d="M55.2495 35.7802C55.3883 35.9906 55.5673 36.1561 55.7732 36.2904C55.9388 36.3978 55.9298 36.6484 55.7508 36.7379C55.442 36.8991 55.1511 37.0065 54.8199 37.0691C53.0477 37.4137 54.2515 34.4779 55.2495 35.7802Z" fill="#D7AE46"/>
<path d="M61.8865 38.8237L61.985 38.9445C62.1953 39.0564 62.1864 39.3204 62.1013 39.4995C61.9492 39.7769 61.7791 39.9515 61.4837 40.0499C60.7542 40.3319 59.9128 39.7546 60.1993 38.9311C60.4409 38.2374 61.6001 38.036 61.8865 38.8237Z" fill="#D7AE46"/>
<path d="M64.33 38.7836C64.9923 38.882 64.9789 39.0432 65.4667 39.4146C65.5338 39.4638 65.5338 39.5668 65.4622 39.6071C64.9251 39.9203 64.9207 40.0725 64.2449 40.0904C63.3945 40.1083 63.4886 38.6538 64.33 38.7836Z" fill="#D7AE46"/>
<path d="M44.844 47.7163C45.1304 47.5999 45.3676 47.5373 45.6675 47.5417C45.7122 47.5417 45.7704 47.5865 45.7883 47.6357C45.7927 47.8013 45.8465 47.949 45.9449 48.0832C46.0837 48.3115 46.0702 48.7009 45.8957 48.9112C45.8241 48.9828 45.7838 49.0589 45.7077 49.1305C45.4213 49.4751 44.7902 49.5512 44.5799 49.0589C44.5486 48.9739 44.5128 48.9022 44.477 48.8172C44.3159 48.4323 44.4233 47.8998 44.844 47.7163Z" fill="#D7AE46"/>
<path d="M43.0405 38.3938C43.2419 38.2819 43.4254 38.1252 43.5597 37.9462C43.6626 37.8209 43.9177 37.8702 43.9669 38.0223C44.1012 38.3983 44.1549 38.7473 44.1818 39.1546C44.2713 40.627 41.4383 39.4276 43.0405 38.3938Z" fill="#D7AE46"/>
<path d="M48.4959 71.7941C49.8743 71.8836 49.7401 74.0363 48.3483 73.9468C46.9654 73.8707 47.104 71.7046 48.4959 71.7941Z" fill="#D7AE46"/>
<path d="M46.8895 75.7196C47.3549 74.6007 49.1406 74.829 49.0645 76.1582C48.9571 77.8409 46.2764 77.2054 46.8895 75.7196Z" fill="#D7AE46"/>
<path d="M48.2097 78.61C49.0601 78.6592 48.9705 79.9661 48.1292 79.9213C47.2788 79.8676 47.3639 78.5563 48.2097 78.61Z" fill="#D7AE46"/>
<path d="M51.4899 74.7521C51.6868 74.949 51.924 75.0474 52.1926 75.0609C52.658 75.1593 52.4432 75.8083 52.0315 75.8441C51.5436 75.8486 51.2169 75.8083 50.8052 75.5353C50.1697 75.1146 50.9752 74.1837 51.4899 74.7521Z" fill="#D7AE46"/>
<path d="M34.4569 57.4863C34.5374 57.8488 34.6314 58.1979 34.7075 58.5604C34.7612 58.811 34.4166 58.999 34.251 58.7886C34.0272 58.5022 33.7855 58.2292 33.5573 57.9472C33.0068 57.2491 34.2958 56.6717 34.4569 57.4863Z" fill="#D7AE46"/>
<path d="M32.0935 59.2945C33.0065 57.9429 35.1726 59.4288 34.2283 60.655C33.2213 61.9395 31.1447 60.6864 32.0935 59.2945Z" fill="#D7AE46"/>
<path d="M33.284 42.3953C33.5301 41.4734 35.016 41.7822 34.9175 42.7176C34.8907 42.9682 34.8593 43.1651 34.7564 43.4023C34.4655 44.1184 33.4272 44.0915 33.2392 43.3128C33.1631 42.9592 33.1944 42.722 33.284 42.3953Z" fill="#D7AE46"/>
<path d="M66.0353 52.5546C66.1785 52.765 66.3172 52.9663 66.4426 53.1767C67.1273 54.3582 65.2386 55.2936 64.5584 54.13C64.5226 54.0629 64.4912 54.0091 64.4599 53.942C63.6901 52.8411 65.2521 51.4402 66.0353 52.5546Z" fill="#D7AE46"/>
<path d="M64.8761 55.718C65.1491 54.9035 66.4604 55.4093 66.1337 56.1119C65.7801 56.8683 64.5807 56.5594 64.8761 55.718Z" fill="#D7AE46"/>
<path d="M64.4335 57.1861C65.615 57.2667 65.4987 59.1105 64.3172 59.021C63.1356 58.9494 63.2565 57.1145 64.4335 57.1861Z" fill="#D7AE46"/>
<path d="M62.9028 59.3255C63.7442 59.3702 63.6681 60.686 62.8222 60.6368C61.9674 60.5831 62.0435 59.2673 62.9028 59.3255Z" fill="#D7AE46"/>
<path d="M60.62 59.8889C61.636 59.956 61.5286 61.5269 60.5171 61.4688C59.5012 61.3971 59.5996 59.8263 60.62 59.8889Z" fill="#D7AE46"/>
<path d="M58.2795 60.0544C58.3466 60.0902 58.4138 60.1394 58.4854 60.1797C58.6375 60.2737 58.6241 60.5556 58.454 60.6362C58.3869 60.663 58.3064 60.6988 58.2347 60.7302C57.4739 61.0658 57.5679 59.6203 58.2795 60.0544Z" fill="#D7AE46"/>
<path d="M54.4305 55.5935C55.5941 55.6695 55.6478 57.2181 54.7796 57.5985C54.8557 57.5851 54.9228 57.5671 55.0034 57.5671C55.4017 57.6029 55.621 57.8446 55.6881 58.131C56.7353 57.7417 57.9347 58.4757 57.8452 59.6661C57.7691 60.8924 56.4131 61.4921 55.4016 60.8745C55.3748 60.8521 55.33 60.8342 55.2987 60.8118C54.7169 60.4493 54.5692 59.7243 54.7572 59.1156C54.0456 58.9277 54.0366 57.9028 54.6498 57.6387C54.5379 57.6701 54.426 57.7014 54.2962 57.688C52.9446 57.5985 53.0789 55.5084 54.4305 55.5935Z" fill="#D7AE46"/>
<path d="M53.7724 53.7583C54.041 52.9572 55.3612 53.4272 55.0345 54.1388C55.0121 54.1746 54.9898 54.188 54.9808 54.2148C54.9987 54.5684 54.7884 54.9354 54.3229 54.913C53.8754 54.8772 53.7143 54.5057 53.7545 54.1656C53.7232 54.0537 53.7232 53.9195 53.7724 53.7583Z" fill="#D7AE46"/>
<path d="M54.6497 51.4307C53.7994 50.4327 54.3051 48.4635 55.9968 48.5754C58.1943 48.7007 57.9794 52.1199 55.782 51.9722C55.5448 51.9722 55.3524 51.8962 55.1778 51.8246C55.151 51.9946 55.0212 52.1692 54.7795 52.1423C54.3633 52.1199 54.3498 51.5873 54.6497 51.4307Z" fill="#D7AE46"/>
<path d="M58.2439 48.5131C59.0047 48.8622 58.6959 50.075 57.8455 49.7707C57.0355 49.4887 57.5323 48.1908 58.2439 48.5131Z" fill="#D7AE46"/>
<path d="M60.392 47.7967L60.674 47.8235C61.6899 47.8951 61.587 49.4526 60.58 49.3944L60.2891 49.381C59.2822 49.3138 59.3716 47.7474 60.392 47.7967Z" fill="#D7AE46"/>
<path d="M62.4464 48.7369C62.7776 48.7638 62.7373 49.2829 62.4017 49.265C62.0705 49.2337 62.0973 48.719 62.4464 48.7369Z" fill="#D7AE46"/>
<path d="M64.2271 49.2874C64.8984 49.3366 64.8358 50.3794 64.16 50.3436C63.4797 50.2988 63.5603 49.2516 64.2271 49.2874Z" fill="#D7AE46"/>
<path d="M65.7311 51.4982C65.6863 51.5743 65.6461 51.637 65.6013 51.7086C65.3059 52.2009 64.478 52.1516 64.2408 51.6235C64.205 51.5474 64.1782 51.4848 64.1379 51.3998C63.3368 49.6186 66.7425 49.8334 65.7311 51.4982Z" fill="#D7AE46"/>
<path d="M59.0313 60.597C59.367 60.6239 59.3312 61.1475 58.9955 61.1296C58.6509 61.1072 58.6912 60.5746 59.0313 60.597Z" fill="#D7AE46"/>
</g>
</svg>
