<svg width="58" height="58" viewBox="0 0 58 58" fill="none" xmlns="http://www.w3.org/2000/svg">
<rect x="1.5" y="1.5" width="55" height="55" rx="13.5" fill="white"/>
<rect x="1.5" y="1.5" width="55" height="55" rx="13.5" stroke="url(#paint0_linear_74_259041)" stroke-width="3"/>
<path d="M37.6265 35.44L38.1465 39.6533C38.2799 40.76 37.0932 41.5333 36.1465 40.96L31.5332 38.2133C31.2132 38.0267 31.1332 37.6267 31.3065 37.3067C31.9732 36.08 32.3332 34.6933 32.3332 33.3067C32.3332 28.4267 28.1465 24.4533 22.9999 24.4533C21.9465 24.4533 20.9199 24.6133 19.9599 24.9333C19.4665 25.0933 18.9865 24.64 19.1065 24.1333C20.3199 19.28 24.9865 15.6667 30.5599 15.6667C37.0665 15.6667 42.3332 20.5867 42.3332 26.6533C42.3332 30.2533 40.4799 33.44 37.6265 35.44Z" fill="#DB2777"/>
<path d="M30.3337 33.3067C30.3337 34.8933 29.747 36.36 28.7603 37.52C27.4403 39.12 25.347 40.1467 23.0003 40.1467L19.5203 42.2133C18.9337 42.5733 18.187 42.08 18.267 41.4L18.6003 38.7733C16.8137 37.5333 15.667 35.5467 15.667 33.3067C15.667 30.96 16.9203 28.8933 18.8403 27.6667C20.027 26.8933 21.4537 26.4533 23.0003 26.4533C27.0537 26.4533 30.3337 29.52 30.3337 33.3067Z" fill="#DB2777"/>
<defs>
<linearGradient id="paint0_linear_74_259041" x1="3" y1="3" x2="58.6144" y2="7.20584" gradientUnits="userSpaceOnUse">
<stop stop-color="#F472B6"/>
<stop offset="0.503582" stop-color="#DB9FBF" stop-opacity="0"/>
<stop offset="1" stop-color="#F472B6"/>
</linearGradient>
</defs>
</svg>
