<svg width="58" height="58" viewBox="0 0 58 58" fill="none" xmlns="http://www.w3.org/2000/svg">
<rect x="1.5" y="1.5" width="55" height="55" rx="13.5" fill="white"/>
<rect x="1.5" y="1.5" width="55" height="55" rx="13.5" stroke="url(#paint0_linear_74_263517)" stroke-width="3"/>
<path d="M35.3333 17.7467V15.6667C35.3333 15.12 34.88 14.6667 34.3333 14.6667C33.7866 14.6667 33.3333 15.12 33.3333 15.6667V17.6667H24.6666V15.6667C24.6666 15.12 24.2133 14.6667 23.6666 14.6667C23.12 14.6667 22.6666 15.12 22.6666 15.6667V17.7467C19.0666 18.08 17.32 20.2267 17.0533 23.4133C17.0266 23.8 17.3466 24.12 17.72 24.12H40.28C40.6666 24.12 40.9866 23.7867 40.9466 23.4133C40.68 20.2267 38.9333 18.08 35.3333 17.7467Z" fill="#E11D48"/>
<path d="M39.6667 26.12H18.3333C17.6 26.12 17 26.72 17 27.4533V35.6667C17 39.6667 19 42.3333 23.6667 42.3333H34.3333C39 42.3333 41 39.6667 41 35.6667V27.4533C41 26.72 40.4 26.12 39.6667 26.12ZM25.28 37.28C25.2133 37.3333 25.1467 37.4 25.08 37.44C25 37.4933 24.92 37.5333 24.84 37.56C24.76 37.6 24.68 37.6267 24.6 37.64C24.5067 37.6533 24.4267 37.6667 24.3333 37.6667C24.16 37.6667 23.9867 37.6267 23.8267 37.56C23.6533 37.4933 23.52 37.4 23.3867 37.28C23.1467 37.0267 23 36.68 23 36.3333C23 35.9867 23.1467 35.64 23.3867 35.3867C23.52 35.2667 23.6533 35.1733 23.8267 35.1067C24.0667 35 24.3333 34.9733 24.6 35.0267C24.68 35.04 24.76 35.0667 24.84 35.1067C24.92 35.1333 25 35.1733 25.08 35.2267C25.1467 35.28 25.2133 35.3333 25.28 35.3867C25.52 35.64 25.6667 35.9867 25.6667 36.3333C25.6667 36.68 25.52 37.0267 25.28 37.28ZM25.28 32.6133C25.0267 32.8533 24.68 33 24.3333 33C23.9867 33 23.64 32.8533 23.3867 32.6133C23.1467 32.36 23 32.0133 23 31.6667C23 31.32 23.1467 30.9733 23.3867 30.72C23.76 30.3467 24.3467 30.2267 24.84 30.44C25.0133 30.5067 25.16 30.6 25.28 30.72C25.52 30.9733 25.6667 31.32 25.6667 31.6667C25.6667 32.0133 25.52 32.36 25.28 32.6133ZM29.9467 37.28C29.6933 37.52 29.3467 37.6667 29 37.6667C28.6533 37.6667 28.3067 37.52 28.0533 37.28C27.8133 37.0267 27.6667 36.68 27.6667 36.3333C27.6667 35.9867 27.8133 35.64 28.0533 35.3867C28.5467 34.8933 29.4533 34.8933 29.9467 35.3867C30.1867 35.64 30.3333 35.9867 30.3333 36.3333C30.3333 36.68 30.1867 37.0267 29.9467 37.28ZM29.9467 32.6133C29.88 32.6667 29.8133 32.72 29.7467 32.7733C29.6667 32.8267 29.5867 32.8667 29.5067 32.8933C29.4267 32.9333 29.3467 32.96 29.2667 32.9733C29.1733 32.9867 29.0933 33 29 33C28.6533 33 28.3067 32.8533 28.0533 32.6133C27.8133 32.36 27.6667 32.0133 27.6667 31.6667C27.6667 31.32 27.8133 30.9733 28.0533 30.72C28.1733 30.6 28.32 30.5067 28.4933 30.44C28.9867 30.2267 29.5733 30.3467 29.9467 30.72C30.1867 30.9733 30.3333 31.32 30.3333 31.6667C30.3333 32.0133 30.1867 32.36 29.9467 32.6133ZM34.6133 37.28C34.36 37.52 34.0133 37.6667 33.6667 37.6667C33.32 37.6667 32.9733 37.52 32.72 37.28C32.48 37.0267 32.3333 36.68 32.3333 36.3333C32.3333 35.9867 32.48 35.64 32.72 35.3867C33.2133 34.8933 34.12 34.8933 34.6133 35.3867C34.8533 35.64 35 35.9867 35 36.3333C35 36.68 34.8533 37.0267 34.6133 37.28ZM34.6133 32.6133C34.5467 32.6667 34.48 32.72 34.4133 32.7733C34.3333 32.8267 34.2533 32.8667 34.1733 32.8933C34.0933 32.9333 34.0133 32.96 33.9333 32.9733C33.84 32.9867 33.7467 33 33.6667 33C33.32 33 32.9733 32.8533 32.72 32.6133C32.48 32.36 32.3333 32.0133 32.3333 31.6667C32.3333 31.32 32.48 30.9733 32.72 30.72C32.8533 30.6 32.9867 30.5067 33.16 30.44C33.4 30.3333 33.6667 30.3067 33.9333 30.36C34.0133 30.3733 34.0933 30.4 34.1733 30.44C34.2533 30.4667 34.3333 30.5067 34.4133 30.56C34.48 30.6133 34.5467 30.6667 34.6133 30.72C34.8533 30.9733 35 31.32 35 31.6667C35 32.0133 34.8533 32.36 34.6133 32.6133Z" fill="#E11D48"/>
<defs>
<linearGradient id="paint0_linear_74_263517" x1="3" y1="3" x2="58.6144" y2="7.20584" gradientUnits="userSpaceOnUse">
<stop stop-color="#FB7185"/>
<stop offset="0.503582" stop-color="#F43F5E" stop-opacity="0"/>
<stop offset="1" stop-color="#FB7185"/>
</linearGradient>
</defs>
</svg>
