<svg width="58" height="58" viewBox="0 0 58 58" fill="none" xmlns="http://www.w3.org/2000/svg">
<rect x="1.5" y="1.5" width="55" height="55" rx="13.5" fill="white"/>
<rect x="1.5" y="1.5" width="55" height="55" rx="13.5" stroke="url(#paint0_linear_74_263510)" stroke-width="3"/>
<path d="M35.667 17.6667H22.3337C18.3337 17.6667 15.667 19.6667 15.667 24.3333V33.6667C15.667 38.3333 18.3337 40.3333 22.3337 40.3333H35.667C39.667 40.3333 42.3337 38.3333 42.3337 33.6667V24.3333C42.3337 19.6667 39.667 17.6667 35.667 17.6667ZM36.2937 25.7867L32.1203 29.12C31.2403 29.8267 30.1203 30.1733 29.0003 30.1733C27.8803 30.1733 26.747 29.8267 25.8803 29.12L21.707 25.7867C21.2803 25.44 21.2137 24.8 21.547 24.3733C21.8937 23.9467 22.5203 23.8667 22.947 24.2133L27.1203 27.5467C28.1337 28.36 29.8537 28.36 30.867 27.5467L35.0403 24.2133C35.467 23.8667 36.107 23.9333 36.4403 24.3733C36.787 24.8 36.7203 25.44 36.2937 25.7867Z" fill="#E11D48"/>
<defs>
<linearGradient id="paint0_linear_74_263510" x1="3" y1="3" x2="58.6144" y2="7.20584" gradientUnits="userSpaceOnUse">
<stop stop-color="#FB7185"/>
<stop offset="0.503582" stop-color="#F43F5E" stop-opacity="0"/>
<stop offset="1" stop-color="#FB7185"/>
</linearGradient>
</defs>
</svg>
