<svg width="58" height="58" viewBox="0 0 58 58" fill="none" xmlns="http://www.w3.org/2000/svg">
<rect x="1.5" y="1.5" width="55" height="55" rx="13.5" fill="white"/>
<rect x="1.5" y="1.5" width="55" height="55" rx="13.5" stroke="url(#paint0_linear_74_263524)" stroke-width="3"/>
<path d="M40.4935 24.2667C39.0935 18.1067 33.7201 15.3333 29.0001 15.3333C29.0001 15.3333 29.0001 15.3333 28.9868 15.3333C24.2801 15.3333 18.8935 18.0933 17.4935 24.2533C15.9335 31.1333 20.1468 36.96 23.9601 40.6267C25.3735 41.9867 27.1868 42.6667 29.0001 42.6667C30.8135 42.6667 32.6268 41.9867 34.0268 40.6267C37.8401 36.96 42.0535 31.1467 40.4935 24.2667ZM29.0001 30.9467C26.6801 30.9467 24.8001 29.0667 24.8001 26.7467C24.8001 24.4267 26.6801 22.5467 29.0001 22.5467C31.3201 22.5467 33.2001 24.4267 33.2001 26.7467C33.2001 29.0667 31.3201 30.9467 29.0001 30.9467Z" fill="#E11D48"/>
<defs>
<linearGradient id="paint0_linear_74_263524" x1="3" y1="3" x2="58.6144" y2="7.20584" gradientUnits="userSpaceOnUse">
<stop stop-color="#FB7185"/>
<stop offset="0.503582" stop-color="#F43F5E" stop-opacity="0"/>
<stop offset="1" stop-color="#FB7185"/>
</linearGradient>
</defs>
</svg>
