<svg width="58" height="58" viewBox="0 0 58 58" fill="none" xmlns="http://www.w3.org/2000/svg">
<rect x="1.5" y="1.5" width="55" height="55" rx="13.5" fill="white"/>
<rect x="1.5" y="1.5" width="55" height="55" rx="13.5" stroke="url(#paint0_linear_64_250872)" stroke-width="3"/>
<path d="M34.5865 15.6666H23.4132C18.5598 15.6666 15.6665 18.56 15.6665 23.4133V34.5733C15.6665 39.44 18.5598 42.3333 23.4132 42.3333H34.5732C39.4265 42.3333 42.3198 39.44 42.3198 34.5866V23.4133C42.3332 18.56 39.4398 15.6666 34.5865 15.6666ZM23.1732 37.2C23.1732 37.7466 22.7198 38.2 22.1732 38.2C21.6265 38.2 21.1732 37.7466 21.1732 37.2V34.44C21.1732 33.8933 21.6265 33.44 22.1732 33.44C22.7198 33.44 23.1732 33.8933 23.1732 34.44V37.2ZM29.9998 37.2C29.9998 37.7466 29.5465 38.2 28.9998 38.2C28.4532 38.2 27.9998 37.7466 27.9998 37.2V31.6666C27.9998 31.12 28.4532 30.6666 28.9998 30.6666C29.5465 30.6666 29.9998 31.12 29.9998 31.6666V37.2ZM36.8265 37.2C36.8265 37.7466 36.3732 38.2 35.8265 38.2C35.2798 38.2 34.8265 37.7466 34.8265 37.2V28.9066C34.8265 28.36 35.2798 27.9066 35.8265 27.9066C36.3732 27.9066 36.8265 28.36 36.8265 28.9066V37.2ZM36.8265 24.6933C36.8265 25.24 36.3732 25.6933 35.8265 25.6933C35.2798 25.6933 34.8265 25.24 34.8265 24.6933V23.4C31.4265 26.8933 27.1732 29.36 22.4132 30.5466C22.3332 30.5733 22.2532 30.5733 22.1732 30.5733C21.7198 30.5733 21.3198 30.2666 21.1998 29.8133C21.0665 29.28 21.3865 28.7333 21.9332 28.6C26.4265 27.48 30.4265 25.12 33.5998 21.7866H31.9332C31.3865 21.7866 30.9332 21.3333 30.9332 20.7866C30.9332 20.24 31.3865 19.7866 31.9332 19.7866H35.8398C35.8932 19.7866 35.9332 19.8133 35.9865 19.8133C36.0532 19.8266 36.1198 19.8266 36.1865 19.8533C36.2532 19.88 36.3065 19.92 36.3732 19.96C36.4132 19.9866 36.4532 20 36.4932 20.0266C36.5065 20.04 36.5065 20.0533 36.5198 20.0533C36.5732 20.1066 36.6132 20.16 36.6532 20.2133C36.6932 20.2666 36.7332 20.3066 36.7465 20.36C36.7732 20.4133 36.7732 20.4666 36.7865 20.5333C36.7998 20.6 36.8265 20.6666 36.8265 20.7466C36.8265 20.76 36.8398 20.7733 36.8398 20.7866V24.6933H36.8265Z" fill="#DB2777"/>
<defs>
<linearGradient id="paint0_linear_64_250872" x1="3" y1="3" x2="58.6144" y2="7.20584" gradientUnits="userSpaceOnUse">
<stop stop-color="#F472B6"/>
<stop offset="0.503582" stop-color="#DB9FBF" stop-opacity="0"/>
<stop offset="1" stop-color="#F472B6"/>
</linearGradient>
</defs>
</svg>
