<svg width="58" height="58" viewBox="0 0 58 58" fill="none" xmlns="http://www.w3.org/2000/svg">
<rect x="1.5" y="1.5" width="55" height="55" rx="13.5" fill="white"/>
<rect x="1.5" y="1.5" width="55" height="55" rx="13.5" stroke="url(#paint0_linear_64_242695)" stroke-width="3"/>
<path d="M36.4132 15.6667H21.5465C18.3065 15.6667 15.6665 18.3067 15.6665 21.5467V30.2134V30.48C15.6665 33.7334 18.3065 36.36 21.5465 36.36H26.6665C27.3998 36.36 27.9998 36.96 27.9998 37.6934V38.9867C27.9998 39.72 27.3998 40.32 26.6665 40.32H23.4398C22.8932 40.32 22.4398 40.7734 22.4398 41.32C22.4398 41.8667 22.8798 42.3334 23.4398 42.3334H34.5732C35.1198 42.3334 35.5732 41.88 35.5732 41.3334C35.5732 40.7867 35.1198 40.3334 34.5732 40.3334H31.3465C30.6132 40.3334 30.0132 39.7334 30.0132 39V37.7067C30.0132 36.9734 30.6132 36.3734 31.3465 36.3734H36.4265C39.6798 36.3734 42.3065 33.7334 42.3065 30.4934V30.2267V21.56C42.2932 18.3067 39.6532 15.6667 36.4132 15.6667Z" fill="#E11D48"/>
<defs>
<linearGradient id="paint0_linear_64_242695" x1="3" y1="3" x2="58.6144" y2="7.20584" gradientUnits="userSpaceOnUse">
<stop stop-color="#FB7185"/>
<stop offset="0.503582" stop-color="#F43F5E" stop-opacity="0"/>
<stop offset="1" stop-color="#FB7185"/>
</linearGradient>
</defs>
</svg>
