<svg width="58" height="58" viewBox="0 0 58 58" fill="none" xmlns="http://www.w3.org/2000/svg">
<rect x="1.5" y="1.5" width="55" height="55" rx="13.5" fill="white"/>
<rect x="1.5" y="1.5" width="55" height="55" rx="13.5" stroke="url(#paint0_linear_64_250864)" stroke-width="3"/>
<path d="M41.1199 22.3067C39.9866 21.0533 38.0932 20.4267 35.3466 20.4267H35.0266V20.3733C35.0266 18.1333 35.0266 15.36 30.0132 15.36H27.9866C22.9732 15.36 22.9732 18.1467 22.9732 20.3733V20.44H22.6532C19.8932 20.44 18.0132 21.0667 16.8799 22.32C15.5599 23.7867 15.5999 25.76 15.7332 27.1067L15.7466 27.2L15.8573 28.3633C15.8716 28.513 15.9524 28.6484 16.0782 28.731C16.3852 28.9326 16.9758 29.3155 17.3199 29.5067C17.5066 29.6267 17.7066 29.7333 17.9066 29.84C20.1866 31.0933 22.6932 31.9333 25.2399 32.3467C25.3599 33.6 25.9066 35.0667 28.8266 35.0667C31.7466 35.0667 32.3199 33.6133 32.4132 32.32C35.1332 31.88 37.7599 30.9333 40.1332 29.5467C40.2132 29.5067 40.2666 29.4667 40.3332 29.4267C40.8831 29.1159 41.4543 28.7301 41.9702 28.3557C42.083 28.2739 42.1553 28.1479 42.1707 28.0094L42.1999 27.7467L42.2666 27.12C42.2799 27.04 42.2799 26.9733 42.2932 26.88C42.3999 25.5333 42.3732 23.6933 41.1199 22.3067ZM30.4532 31.44C30.4532 32.8533 30.4532 33.0667 28.8132 33.0667C27.1732 33.0667 27.1732 32.8133 27.1732 31.4533V29.7733H30.4532V31.44ZM24.8799 20.4267V20.3733C24.8799 18.1067 24.8799 17.2667 27.9866 17.2667H30.0132C33.1199 17.2667 33.1199 18.12 33.1199 20.3733V20.44H24.8799V20.4267Z" fill="#DB2777"/>
<path d="M41.1029 31.1825C41.4559 31.0131 41.8611 31.2939 41.8257 31.6839L41.3201 37.2534C41.0401 39.92 39.9468 42.64 34.0801 42.64H23.9201C18.0534 42.64 16.9601 39.92 16.6801 37.2667L16.1994 31.9789C16.1644 31.5934 16.561 31.3132 16.9132 31.4739C18.3708 32.139 21.4937 33.5169 23.3226 33.978C23.4873 34.0195 23.6213 34.1372 23.6901 34.2924C24.4819 36.0765 26.2523 37.0267 28.8268 37.0267C31.3758 37.0267 33.1695 36.0399 33.9633 34.2526C34.0323 34.0973 34.1667 33.9795 34.3316 33.9379C36.2712 33.4474 39.584 31.9116 41.1029 31.1825Z" fill="#DB2777"/>
<defs>
<linearGradient id="paint0_linear_64_250864" x1="3" y1="3" x2="58.6144" y2="7.20584" gradientUnits="userSpaceOnUse">
<stop stop-color="#F472B6"/>
<stop offset="0.503582" stop-color="#DB9FBF" stop-opacity="0"/>
<stop offset="1" stop-color="#F472B6"/>
</linearGradient>
</defs>
</svg>
