<svg width="58" height="58" viewBox="0 0 58 58" fill="none" xmlns="http://www.w3.org/2000/svg">
<rect x="1.5" y="1.5" width="55" height="55" rx="13.5" fill="white"/>
<rect x="1.5" y="1.5" width="55" height="55" rx="13.5" stroke="url(#paint0_linear_64_242671)" stroke-width="3"/>
<path d="M41 42.3333H17C16.4533 42.3333 16 41.88 16 41.3333C16 40.7866 16.4533 40.3333 17 40.3333H41C41.5467 40.3333 42 40.7866 42 41.3333C42 41.88 41.5467 42.3333 41 42.3333Z" fill="#E11D48"/>
<path d="M38.3598 17.64C35.7731 15.0533 33.2398 14.9867 30.5864 17.64L28.9731 19.2533C28.8398 19.3867 28.7864 19.6 28.8398 19.7867C29.8531 23.32 32.6798 26.1467 36.2131 27.16C36.2664 27.1733 36.3198 27.1867 36.3731 27.1867C36.5198 27.1867 36.6531 27.1333 36.7598 27.0267L38.3598 25.4133C39.6798 24.1067 40.3198 22.84 40.3198 21.56C40.3331 20.24 39.6931 18.96 38.3598 17.64Z" fill="#E11D48"/>
<path d="M33.8131 28.3733C33.4264 28.1866 33.0531 28 32.6931 27.7867C32.3998 27.6133 32.1198 27.4267 31.8398 27.2267C31.6131 27.08 31.3464 26.8667 31.0931 26.6533C31.0664 26.64 30.9731 26.56 30.8664 26.4533C30.4264 26.08 29.9331 25.6 29.4931 25.0667C29.4531 25.04 29.3864 24.9467 29.2931 24.8267C29.1598 24.6667 28.9331 24.4 28.7331 24.0933C28.5731 23.8933 28.3864 23.6 28.2131 23.3067C27.9998 22.9467 27.8131 22.5867 27.6264 22.2133C27.5603 22.0716 27.4992 21.9315 27.4419 21.7937C27.302 21.4571 26.866 21.3604 26.6082 21.6182L18.7864 29.44C18.6131 29.6133 18.4531 29.9467 18.4131 30.1733L17.6931 35.28C17.5598 36.1866 17.8131 37.04 18.3731 37.6133C18.8531 38.08 19.5198 38.3333 20.2398 38.3333C20.3998 38.3333 20.5598 38.32 20.7198 38.2933L25.8398 37.5733C26.0798 37.5333 26.4131 37.3733 26.5731 37.2L34.3878 29.3853C34.6473 29.1258 34.5489 28.6818 34.2097 28.5415C34.0807 28.4882 33.9492 28.4323 33.8131 28.3733Z" fill="#E11D48"/>
<defs>
<linearGradient id="paint0_linear_64_242671" x1="3" y1="3" x2="58.6144" y2="7.20584" gradientUnits="userSpaceOnUse">
<stop stop-color="#FB7185"/>
<stop offset="0.503582" stop-color="#F43F5E" stop-opacity="0"/>
<stop offset="1" stop-color="#FB7185"/>
</linearGradient>
</defs>
</svg>
